M48
;DRILL file {KiCad 4.0.5} date Sat Mar 11 22:07:52 2017
;FORMAT={-:-/ absolute / inch / decimal}
FMAT,2
INCH,TZ
T1C0.020
T2C0.040
%
G90
G05
M72
T1
X1.7717Y-1.7815
X1.8209Y-1.4764
X1.8701Y-1.2106
X1.9193Y-1.2894
X2.0374Y-1.5551
X2.1457Y-1.1319
X2.1949Y-1.3189
X2.1949Y-1.7126
X2.2244Y-1.2106
X2.2244Y-1.2795
X2.2638Y-1.939
X2.2736Y-1.624
T2
X1.7717Y-1.4272
X1.7717Y-1.5846
X1.7717Y-1.9783
X1.7972Y-1.0728
X1.8972Y-1.0728
X1.9972Y-1.0728
X2.0972Y-1.0728
X2.1972Y-1.0728
X2.2972Y-1.0728
X2.3228Y-1.4272
X2.3228Y-1.5059
X2.3228Y-1.7421
X2.3228Y-1.8209
X2.3228Y-1.8996
X2.3228Y-1.9783
T0
M30
