G04 #@! TF.FileFunction,Copper,L2,Bot,Mixed*
%FSLAX46Y46*%
G04 Gerber Fmt 4.6, Leading zero omitted, Abs format (unit mm)*
G04 Created by KiCad (PCBNEW 4.0.5) date Sat Mar 11 22:07:51 2017*
%MOMM*%
%LPD*%
G01*
G04 APERTURE LIST*
%ADD10C,0.101600*%
%ADD11C,0.010000*%
%ADD12O,2.000000X1.500000*%
%ADD13O,2.032000X2.032000*%
%ADD14R,2.032000X2.032000*%
%ADD15C,0.900000*%
%ADD16C,0.200000*%
G04 APERTURE END LIST*
D10*
D11*
G36*
X49362686Y-30616917D02*
X49396508Y-30572094D01*
X49423708Y-30523261D01*
X49443292Y-30471508D01*
X49454265Y-30417930D01*
X49456309Y-30383079D01*
X49452556Y-30342370D01*
X49442240Y-30299800D01*
X49426713Y-30260395D01*
X49419982Y-30247738D01*
X49399761Y-30219374D01*
X49372422Y-30190205D01*
X49340611Y-30162412D01*
X49306974Y-30138175D01*
X49274154Y-30119676D01*
X49255357Y-30112037D01*
X49240578Y-30107509D01*
X49218943Y-30101339D01*
X49193856Y-30094481D01*
X49177794Y-30090235D01*
X49133898Y-30077895D01*
X49090570Y-30064052D01*
X49050072Y-30049533D01*
X49014668Y-30035166D01*
X48986622Y-30021778D01*
X48979288Y-30017669D01*
X48951028Y-29997622D01*
X48925653Y-29973366D01*
X48905468Y-29947461D01*
X48892776Y-29922465D01*
X48892284Y-29920990D01*
X48886223Y-29886437D01*
X48888152Y-29846968D01*
X48897752Y-29804219D01*
X48914700Y-29759824D01*
X48929597Y-29730700D01*
X48958115Y-29685668D01*
X48994548Y-29636812D01*
X49037560Y-29585438D01*
X49085811Y-29532852D01*
X49137959Y-29480362D01*
X49192669Y-29429273D01*
X49248598Y-29380892D01*
X49304407Y-29336526D01*
X49358759Y-29297480D01*
X49401788Y-29270060D01*
X49447328Y-29245718D01*
X49490117Y-29228314D01*
X49529200Y-29218058D01*
X49563624Y-29215162D01*
X49592435Y-29219835D01*
X49604725Y-29225238D01*
X49620802Y-29235342D01*
X49632238Y-29245975D01*
X49641997Y-29260493D01*
X49650586Y-29277149D01*
X49658117Y-29291577D01*
X49663864Y-29298299D01*
X49668960Y-29296740D01*
X49674537Y-29286323D01*
X49681727Y-29266475D01*
X49683810Y-29260270D01*
X49692118Y-29219866D01*
X49692241Y-29174424D01*
X49684448Y-29125271D01*
X49669006Y-29073737D01*
X49646185Y-29021151D01*
X49629184Y-28989855D01*
X49616881Y-28969580D01*
X49605109Y-28952262D01*
X49591993Y-28935579D01*
X49575656Y-28917213D01*
X49554224Y-28894843D01*
X49543879Y-28884329D01*
X49515136Y-28855912D01*
X49490603Y-28833527D01*
X49467607Y-28815161D01*
X49443479Y-28798804D01*
X49415548Y-28782444D01*
X49391192Y-28769328D01*
X49322139Y-28738776D01*
X49250663Y-28718360D01*
X49177213Y-28708034D01*
X49102235Y-28707747D01*
X49026179Y-28717452D01*
X48949491Y-28737097D01*
X48872620Y-28766636D01*
X48796012Y-28806018D01*
X48741413Y-28840345D01*
X48726316Y-28850793D01*
X48712246Y-28861138D01*
X48698082Y-28872385D01*
X48682702Y-28885541D01*
X48664984Y-28901613D01*
X48643807Y-28921608D01*
X48618048Y-28946529D01*
X48586587Y-28977385D01*
X48565870Y-28997820D01*
X48535125Y-29028277D01*
X48506081Y-29057227D01*
X48479790Y-29083607D01*
X48457305Y-29106354D01*
X48439677Y-29124408D01*
X48427958Y-29136704D01*
X48424363Y-29140688D01*
X48359292Y-29221361D01*
X48303858Y-29300024D01*
X48258115Y-29376526D01*
X48222119Y-29450713D01*
X48195926Y-29522433D01*
X48179592Y-29591536D01*
X48173172Y-29657869D01*
X48176722Y-29721279D01*
X48190020Y-29780737D01*
X48213730Y-29839897D01*
X48246805Y-29895849D01*
X48289454Y-29948826D01*
X48341889Y-29999065D01*
X48404323Y-30046801D01*
X48461168Y-30083085D01*
X48499465Y-30104424D01*
X48543893Y-30126978D01*
X48591251Y-30149278D01*
X48638333Y-30169850D01*
X48681934Y-30187226D01*
X48708601Y-30196676D01*
X48727917Y-30203309D01*
X48743134Y-30209012D01*
X48751608Y-30212779D01*
X48752386Y-30213324D01*
X48750128Y-30218119D01*
X48741748Y-30229190D01*
X48728404Y-30245130D01*
X48711253Y-30264532D01*
X48700852Y-30275914D01*
X48657214Y-30325608D01*
X48618080Y-30375097D01*
X48583803Y-30423627D01*
X48554734Y-30470448D01*
X48531225Y-30514802D01*
X48513629Y-30555940D01*
X48502294Y-30593105D01*
X48497577Y-30625545D01*
X48499824Y-30652507D01*
X48509392Y-30673237D01*
X48513298Y-30677688D01*
X48520336Y-30682616D01*
X48528848Y-30683701D01*
X48539887Y-30680355D01*
X48554507Y-30671988D01*
X48573761Y-30658012D01*
X48598703Y-30637838D01*
X48625971Y-30614679D01*
X48664792Y-30582044D01*
X48697529Y-30556320D01*
X48725349Y-30536706D01*
X48749418Y-30522407D01*
X48770902Y-30512620D01*
X48779005Y-30509799D01*
X48797577Y-30504047D01*
X48810286Y-30501738D01*
X48819424Y-30504100D01*
X48827286Y-30512359D01*
X48836165Y-30527740D01*
X48845101Y-30545136D01*
X48878309Y-30601571D01*
X48915363Y-30648895D01*
X48955936Y-30686881D01*
X48999704Y-30715303D01*
X49046342Y-30733936D01*
X49095523Y-30742550D01*
X49129027Y-30742651D01*
X49181052Y-30734262D01*
X49231425Y-30716401D01*
X49279149Y-30690163D01*
X49323235Y-30656637D01*
X49362686Y-30616917D01*
X49362686Y-30616917D01*
G37*
X49362686Y-30616917D02*
X49396508Y-30572094D01*
X49423708Y-30523261D01*
X49443292Y-30471508D01*
X49454265Y-30417930D01*
X49456309Y-30383079D01*
X49452556Y-30342370D01*
X49442240Y-30299800D01*
X49426713Y-30260395D01*
X49419982Y-30247738D01*
X49399761Y-30219374D01*
X49372422Y-30190205D01*
X49340611Y-30162412D01*
X49306974Y-30138175D01*
X49274154Y-30119676D01*
X49255357Y-30112037D01*
X49240578Y-30107509D01*
X49218943Y-30101339D01*
X49193856Y-30094481D01*
X49177794Y-30090235D01*
X49133898Y-30077895D01*
X49090570Y-30064052D01*
X49050072Y-30049533D01*
X49014668Y-30035166D01*
X48986622Y-30021778D01*
X48979288Y-30017669D01*
X48951028Y-29997622D01*
X48925653Y-29973366D01*
X48905468Y-29947461D01*
X48892776Y-29922465D01*
X48892284Y-29920990D01*
X48886223Y-29886437D01*
X48888152Y-29846968D01*
X48897752Y-29804219D01*
X48914700Y-29759824D01*
X48929597Y-29730700D01*
X48958115Y-29685668D01*
X48994548Y-29636812D01*
X49037560Y-29585438D01*
X49085811Y-29532852D01*
X49137959Y-29480362D01*
X49192669Y-29429273D01*
X49248598Y-29380892D01*
X49304407Y-29336526D01*
X49358759Y-29297480D01*
X49401788Y-29270060D01*
X49447328Y-29245718D01*
X49490117Y-29228314D01*
X49529200Y-29218058D01*
X49563624Y-29215162D01*
X49592435Y-29219835D01*
X49604725Y-29225238D01*
X49620802Y-29235342D01*
X49632238Y-29245975D01*
X49641997Y-29260493D01*
X49650586Y-29277149D01*
X49658117Y-29291577D01*
X49663864Y-29298299D01*
X49668960Y-29296740D01*
X49674537Y-29286323D01*
X49681727Y-29266475D01*
X49683810Y-29260270D01*
X49692118Y-29219866D01*
X49692241Y-29174424D01*
X49684448Y-29125271D01*
X49669006Y-29073737D01*
X49646185Y-29021151D01*
X49629184Y-28989855D01*
X49616881Y-28969580D01*
X49605109Y-28952262D01*
X49591993Y-28935579D01*
X49575656Y-28917213D01*
X49554224Y-28894843D01*
X49543879Y-28884329D01*
X49515136Y-28855912D01*
X49490603Y-28833527D01*
X49467607Y-28815161D01*
X49443479Y-28798804D01*
X49415548Y-28782444D01*
X49391192Y-28769328D01*
X49322139Y-28738776D01*
X49250663Y-28718360D01*
X49177213Y-28708034D01*
X49102235Y-28707747D01*
X49026179Y-28717452D01*
X48949491Y-28737097D01*
X48872620Y-28766636D01*
X48796012Y-28806018D01*
X48741413Y-28840345D01*
X48726316Y-28850793D01*
X48712246Y-28861138D01*
X48698082Y-28872385D01*
X48682702Y-28885541D01*
X48664984Y-28901613D01*
X48643807Y-28921608D01*
X48618048Y-28946529D01*
X48586587Y-28977385D01*
X48565870Y-28997820D01*
X48535125Y-29028277D01*
X48506081Y-29057227D01*
X48479790Y-29083607D01*
X48457305Y-29106354D01*
X48439677Y-29124408D01*
X48427958Y-29136704D01*
X48424363Y-29140688D01*
X48359292Y-29221361D01*
X48303858Y-29300024D01*
X48258115Y-29376526D01*
X48222119Y-29450713D01*
X48195926Y-29522433D01*
X48179592Y-29591536D01*
X48173172Y-29657869D01*
X48176722Y-29721279D01*
X48190020Y-29780737D01*
X48213730Y-29839897D01*
X48246805Y-29895849D01*
X48289454Y-29948826D01*
X48341889Y-29999065D01*
X48404323Y-30046801D01*
X48461168Y-30083085D01*
X48499465Y-30104424D01*
X48543893Y-30126978D01*
X48591251Y-30149278D01*
X48638333Y-30169850D01*
X48681934Y-30187226D01*
X48708601Y-30196676D01*
X48727917Y-30203309D01*
X48743134Y-30209012D01*
X48751608Y-30212779D01*
X48752386Y-30213324D01*
X48750128Y-30218119D01*
X48741748Y-30229190D01*
X48728404Y-30245130D01*
X48711253Y-30264532D01*
X48700852Y-30275914D01*
X48657214Y-30325608D01*
X48618080Y-30375097D01*
X48583803Y-30423627D01*
X48554734Y-30470448D01*
X48531225Y-30514802D01*
X48513629Y-30555940D01*
X48502294Y-30593105D01*
X48497577Y-30625545D01*
X48499824Y-30652507D01*
X48509392Y-30673237D01*
X48513298Y-30677688D01*
X48520336Y-30682616D01*
X48528848Y-30683701D01*
X48539887Y-30680355D01*
X48554507Y-30671988D01*
X48573761Y-30658012D01*
X48598703Y-30637838D01*
X48625971Y-30614679D01*
X48664792Y-30582044D01*
X48697529Y-30556320D01*
X48725349Y-30536706D01*
X48749418Y-30522407D01*
X48770902Y-30512620D01*
X48779005Y-30509799D01*
X48797577Y-30504047D01*
X48810286Y-30501738D01*
X48819424Y-30504100D01*
X48827286Y-30512359D01*
X48836165Y-30527740D01*
X48845101Y-30545136D01*
X48878309Y-30601571D01*
X48915363Y-30648895D01*
X48955936Y-30686881D01*
X48999704Y-30715303D01*
X49046342Y-30733936D01*
X49095523Y-30742550D01*
X49129027Y-30742651D01*
X49181052Y-30734262D01*
X49231425Y-30716401D01*
X49279149Y-30690163D01*
X49323235Y-30656637D01*
X49362686Y-30616917D01*
D12*
X45000000Y-36250000D03*
X45000000Y-40250000D03*
X45000000Y-50250000D03*
X59000000Y-50250000D03*
X59000000Y-48250000D03*
X59000000Y-46250000D03*
X59000000Y-44250000D03*
X59000000Y-38250000D03*
X59000000Y-36250000D03*
D13*
X58350000Y-27250000D03*
X55810000Y-27250000D03*
X53270000Y-27250000D03*
D14*
X45650000Y-27250000D03*
D13*
X48190000Y-27250000D03*
X50730000Y-27250000D03*
D15*
X55750000Y-33500000D03*
X56500000Y-30750000D03*
X48750000Y-32750000D03*
X56500000Y-32500000D03*
X54500000Y-28750000D03*
X51750000Y-39500000D03*
X55750000Y-43500000D03*
X46250000Y-37500000D03*
X45000000Y-45250000D03*
X47500000Y-30750000D03*
X57750000Y-41250000D03*
X57500000Y-49250000D03*
D16*
X55750000Y-33500000D02*
X55750000Y-37500000D01*
X55750000Y-37500000D02*
X59000000Y-40750000D01*
X59000000Y-40750000D02*
X59000000Y-44250000D01*
X59000000Y-33250000D02*
X59000000Y-36250000D01*
X56500000Y-30750000D02*
X59000000Y-33250000D01*
X46250000Y-37500000D02*
X45000000Y-38750000D01*
X45000000Y-38750000D02*
X45000000Y-40250000D01*
X45000000Y-45250000D02*
X45000000Y-40250000D01*
X50750000Y-27500000D02*
X47500000Y-30750000D01*
X57750000Y-41250000D02*
X56750000Y-42250000D01*
X56750000Y-42250000D02*
X56750000Y-48500000D01*
X56750000Y-48500000D02*
X57500000Y-49250000D01*
X57500000Y-49250000D02*
X57500000Y-49250000D01*
X57500000Y-49250000D02*
X57500000Y-49250000D01*
G36*
X60125928Y-24364026D02*
X60247056Y-24400597D01*
X60358775Y-24459999D01*
X60456831Y-24539971D01*
X60537484Y-24637464D01*
X60597662Y-24748762D01*
X60635079Y-24869636D01*
X60650000Y-25011595D01*
X60650000Y-50982878D01*
X60635974Y-51125927D01*
X60599403Y-51247055D01*
X60540000Y-51358777D01*
X60460029Y-51456831D01*
X60362536Y-51537484D01*
X60251239Y-51597662D01*
X60130363Y-51635079D01*
X59988405Y-51650000D01*
X44017122Y-51650000D01*
X43874073Y-51635974D01*
X43752945Y-51599403D01*
X43641223Y-51540000D01*
X43543169Y-51460029D01*
X43462516Y-51362536D01*
X43402338Y-51251239D01*
X43364921Y-51130363D01*
X43350000Y-50988405D01*
X43350000Y-50242670D01*
X43693736Y-50242670D01*
X43712308Y-50446750D01*
X43770167Y-50643337D01*
X43865107Y-50824941D01*
X43993514Y-50984647D01*
X44150495Y-51116369D01*
X44330071Y-51215092D01*
X44525403Y-51277055D01*
X44729050Y-51299898D01*
X44743710Y-51300000D01*
X45256290Y-51300000D01*
X45460236Y-51280003D01*
X45656414Y-51220773D01*
X45837351Y-51124567D01*
X45996156Y-50995049D01*
X46126779Y-50837153D01*
X46224246Y-50656891D01*
X46254014Y-50560725D01*
X57747030Y-50560725D01*
X57831856Y-50783385D01*
X57953556Y-50952257D01*
X58105863Y-51094142D01*
X58282924Y-51203587D01*
X58477934Y-51276386D01*
X58683400Y-51309742D01*
X58850000Y-51232113D01*
X58850000Y-50400000D01*
X59150000Y-50400000D01*
X59150000Y-51232113D01*
X59316600Y-51309742D01*
X59522066Y-51276386D01*
X59717076Y-51203587D01*
X59894137Y-51094142D01*
X60046444Y-50952257D01*
X60168144Y-50783385D01*
X60252970Y-50560725D01*
X60213392Y-50400000D01*
X59150000Y-50400000D01*
X58850000Y-50400000D01*
X57786608Y-50400000D01*
X57747030Y-50560725D01*
X46254014Y-50560725D01*
X46284844Y-50461132D01*
X46306264Y-50257330D01*
X46287692Y-50053250D01*
X46229833Y-49856663D01*
X46134893Y-49675059D01*
X46006486Y-49515353D01*
X45849505Y-49383631D01*
X45669929Y-49284908D01*
X45474597Y-49222945D01*
X45270950Y-49200102D01*
X45256290Y-49200000D01*
X44743710Y-49200000D01*
X44539764Y-49219997D01*
X44343586Y-49279227D01*
X44162649Y-49375433D01*
X44003844Y-49504951D01*
X43873221Y-49662847D01*
X43775754Y-49843109D01*
X43715156Y-50038868D01*
X43693736Y-50242670D01*
X43350000Y-50242670D01*
X43350000Y-36242670D01*
X43693736Y-36242670D01*
X43712308Y-36446750D01*
X43770167Y-36643337D01*
X43865107Y-36824941D01*
X43993514Y-36984647D01*
X44150495Y-37116369D01*
X44330071Y-37215092D01*
X44525403Y-37277055D01*
X44729050Y-37299898D01*
X44743710Y-37300000D01*
X45256290Y-37300000D01*
X45460236Y-37280003D01*
X45538384Y-37256409D01*
X45531648Y-37272125D01*
X45501068Y-37415994D01*
X45499014Y-37563062D01*
X45517970Y-37666344D01*
X44717157Y-38467157D01*
X44693677Y-38495742D01*
X44669955Y-38524013D01*
X44668942Y-38525855D01*
X44667606Y-38527482D01*
X44650142Y-38560053D01*
X44632346Y-38592423D01*
X44631710Y-38594429D01*
X44630716Y-38596282D01*
X44619925Y-38631579D01*
X44608741Y-38666835D01*
X44608506Y-38668929D01*
X44607892Y-38670938D01*
X44604159Y-38707687D01*
X44600039Y-38744415D01*
X44600010Y-38748522D01*
X44600002Y-38748604D01*
X44600009Y-38748680D01*
X44600000Y-38750000D01*
X44600000Y-39214091D01*
X44539764Y-39219997D01*
X44343586Y-39279227D01*
X44162649Y-39375433D01*
X44003844Y-39504951D01*
X43873221Y-39662847D01*
X43775754Y-39843109D01*
X43715156Y-40038868D01*
X43693736Y-40242670D01*
X43712308Y-40446750D01*
X43770167Y-40643337D01*
X43865107Y-40824941D01*
X43993514Y-40984647D01*
X44150495Y-41116369D01*
X44330071Y-41215092D01*
X44525403Y-41277055D01*
X44600000Y-41285423D01*
X44600000Y-44615404D01*
X44527773Y-44662668D01*
X44422687Y-44765577D01*
X44339590Y-44886936D01*
X44281648Y-45022125D01*
X44251068Y-45165994D01*
X44249014Y-45313062D01*
X44275565Y-45457728D01*
X44329710Y-45594482D01*
X44409386Y-45718115D01*
X44511558Y-45823917D01*
X44632335Y-45907859D01*
X44767116Y-45966744D01*
X44910767Y-45998328D01*
X45057818Y-46001408D01*
X45202666Y-45975867D01*
X45339794Y-45922679D01*
X45463980Y-45843868D01*
X45570493Y-45742437D01*
X45655277Y-45622249D01*
X45715100Y-45487882D01*
X45747686Y-45344455D01*
X45750032Y-45176459D01*
X45721464Y-45032177D01*
X45665415Y-44896193D01*
X45584021Y-44773684D01*
X45480381Y-44669319D01*
X45400000Y-44615101D01*
X45400000Y-41285909D01*
X45460236Y-41280003D01*
X45656414Y-41220773D01*
X45837351Y-41124567D01*
X45996156Y-40995049D01*
X46126779Y-40837153D01*
X46224246Y-40656891D01*
X46284844Y-40461132D01*
X46306264Y-40257330D01*
X46287692Y-40053250D01*
X46229833Y-39856663D01*
X46134893Y-39675059D01*
X46006486Y-39515353D01*
X45849505Y-39383631D01*
X45669929Y-39284908D01*
X45474597Y-39222945D01*
X45400000Y-39214577D01*
X45400000Y-38915686D01*
X46084194Y-38231492D01*
X46160767Y-38248328D01*
X46307818Y-38251408D01*
X46452666Y-38225867D01*
X46589794Y-38172679D01*
X46713980Y-38093868D01*
X46820493Y-37992437D01*
X46905277Y-37872249D01*
X46965100Y-37737882D01*
X46997686Y-37594455D01*
X47000032Y-37426459D01*
X46971464Y-37282177D01*
X46915415Y-37146193D01*
X46834021Y-37023684D01*
X46730381Y-36919319D01*
X46608444Y-36837071D01*
X46472854Y-36780075D01*
X46328776Y-36750499D01*
X46181697Y-36749473D01*
X46173324Y-36751070D01*
X46224246Y-36656891D01*
X46284844Y-36461132D01*
X46306264Y-36257330D01*
X46287692Y-36053250D01*
X46229833Y-35856663D01*
X46134893Y-35675059D01*
X46006486Y-35515353D01*
X45849505Y-35383631D01*
X45669929Y-35284908D01*
X45474597Y-35222945D01*
X45270950Y-35200102D01*
X45256290Y-35200000D01*
X44743710Y-35200000D01*
X44539764Y-35219997D01*
X44343586Y-35279227D01*
X44162649Y-35375433D01*
X44003844Y-35504951D01*
X43873221Y-35662847D01*
X43775754Y-35843109D01*
X43715156Y-36038868D01*
X43693736Y-36242670D01*
X43350000Y-36242670D01*
X43350000Y-33563062D01*
X54999014Y-33563062D01*
X55025565Y-33707728D01*
X55079710Y-33844482D01*
X55159386Y-33968115D01*
X55261558Y-34073917D01*
X55350000Y-34135386D01*
X55350000Y-37500000D01*
X55353607Y-37536784D01*
X55356826Y-37573580D01*
X55357413Y-37575599D01*
X55357618Y-37577694D01*
X55368301Y-37613077D01*
X55378606Y-37648547D01*
X55379574Y-37650415D01*
X55380182Y-37652428D01*
X55397531Y-37685058D01*
X55414532Y-37717855D01*
X55415844Y-37719498D01*
X55416832Y-37721357D01*
X55440202Y-37750011D01*
X55463236Y-37778866D01*
X55466124Y-37781796D01*
X55466172Y-37781854D01*
X55466226Y-37781899D01*
X55467157Y-37782843D01*
X58600000Y-40915686D01*
X58600000Y-43214091D01*
X58539764Y-43219997D01*
X58343586Y-43279227D01*
X58162649Y-43375433D01*
X58003844Y-43504951D01*
X57873221Y-43662847D01*
X57775754Y-43843109D01*
X57715156Y-44038868D01*
X57693736Y-44242670D01*
X57712308Y-44446750D01*
X57770167Y-44643337D01*
X57865107Y-44824941D01*
X57993514Y-44984647D01*
X58150495Y-45116369D01*
X58330071Y-45215092D01*
X58440249Y-45250043D01*
X58343586Y-45279227D01*
X58162649Y-45375433D01*
X58003844Y-45504951D01*
X57873221Y-45662847D01*
X57775754Y-45843109D01*
X57715156Y-46038868D01*
X57693736Y-46242670D01*
X57712308Y-46446750D01*
X57770167Y-46643337D01*
X57865107Y-46824941D01*
X57993514Y-46984647D01*
X58150495Y-47116369D01*
X58330071Y-47215092D01*
X58440249Y-47250043D01*
X58343586Y-47279227D01*
X58162649Y-47375433D01*
X58003844Y-47504951D01*
X57873221Y-47662847D01*
X57775754Y-47843109D01*
X57715156Y-48038868D01*
X57693736Y-48242670D01*
X57712308Y-48446750D01*
X57738805Y-48536780D01*
X57722854Y-48530075D01*
X57578776Y-48500499D01*
X57431697Y-48499473D01*
X57333828Y-48518142D01*
X57150000Y-48334314D01*
X57150000Y-42415686D01*
X57584193Y-41981492D01*
X57660767Y-41998328D01*
X57807818Y-42001408D01*
X57952666Y-41975867D01*
X58089794Y-41922679D01*
X58213980Y-41843868D01*
X58320493Y-41742437D01*
X58405277Y-41622249D01*
X58465100Y-41487882D01*
X58497686Y-41344455D01*
X58500032Y-41176459D01*
X58471464Y-41032177D01*
X58415415Y-40896193D01*
X58334021Y-40773684D01*
X58230381Y-40669319D01*
X58108444Y-40587071D01*
X57972854Y-40530075D01*
X57828776Y-40500499D01*
X57681697Y-40499473D01*
X57537219Y-40527033D01*
X57400847Y-40582131D01*
X57277773Y-40662668D01*
X57172687Y-40765577D01*
X57089590Y-40886936D01*
X57031648Y-41022125D01*
X57001068Y-41165994D01*
X56999014Y-41313062D01*
X57017970Y-41416345D01*
X56467157Y-41967157D01*
X56443677Y-41995742D01*
X56419955Y-42024013D01*
X56418942Y-42025855D01*
X56417606Y-42027482D01*
X56400142Y-42060053D01*
X56382346Y-42092423D01*
X56381710Y-42094429D01*
X56380716Y-42096282D01*
X56369925Y-42131579D01*
X56358741Y-42166835D01*
X56358506Y-42168929D01*
X56357892Y-42170938D01*
X56354159Y-42207687D01*
X56350039Y-42244415D01*
X56350010Y-42248522D01*
X56350002Y-42248604D01*
X56350009Y-42248680D01*
X56350000Y-42250000D01*
X56350000Y-48500000D01*
X56353607Y-48536784D01*
X56356826Y-48573580D01*
X56357413Y-48575599D01*
X56357618Y-48577694D01*
X56368301Y-48613077D01*
X56378606Y-48648547D01*
X56379574Y-48650415D01*
X56380182Y-48652428D01*
X56397531Y-48685058D01*
X56414532Y-48717855D01*
X56415844Y-48719498D01*
X56416832Y-48721357D01*
X56440202Y-48750011D01*
X56463236Y-48778866D01*
X56466124Y-48781796D01*
X56466172Y-48781854D01*
X56466226Y-48781899D01*
X56467157Y-48782843D01*
X56768464Y-49084150D01*
X56751068Y-49165994D01*
X56749014Y-49313062D01*
X56775565Y-49457728D01*
X56829710Y-49594482D01*
X56909386Y-49718115D01*
X57011558Y-49823917D01*
X57132335Y-49907859D01*
X57267116Y-49966744D01*
X57410767Y-49998328D01*
X57557818Y-50001408D01*
X57702666Y-49975867D01*
X57751387Y-49956969D01*
X57786608Y-50100000D01*
X58850000Y-50100000D01*
X58850000Y-50080000D01*
X59150000Y-50080000D01*
X59150000Y-50100000D01*
X60213392Y-50100000D01*
X60252970Y-49939275D01*
X60168144Y-49716615D01*
X60046444Y-49547743D01*
X59894137Y-49405858D01*
X59717076Y-49296413D01*
X59577930Y-49244469D01*
X59656414Y-49220773D01*
X59837351Y-49124567D01*
X59996156Y-48995049D01*
X60126779Y-48837153D01*
X60224246Y-48656891D01*
X60284844Y-48461132D01*
X60306264Y-48257330D01*
X60287692Y-48053250D01*
X60229833Y-47856663D01*
X60134893Y-47675059D01*
X60006486Y-47515353D01*
X59849505Y-47383631D01*
X59669929Y-47284908D01*
X59559751Y-47249957D01*
X59656414Y-47220773D01*
X59837351Y-47124567D01*
X59996156Y-46995049D01*
X60126779Y-46837153D01*
X60224246Y-46656891D01*
X60284844Y-46461132D01*
X60306264Y-46257330D01*
X60287692Y-46053250D01*
X60229833Y-45856663D01*
X60134893Y-45675059D01*
X60006486Y-45515353D01*
X59849505Y-45383631D01*
X59669929Y-45284908D01*
X59559751Y-45249957D01*
X59656414Y-45220773D01*
X59837351Y-45124567D01*
X59996156Y-44995049D01*
X60126779Y-44837153D01*
X60224246Y-44656891D01*
X60284844Y-44461132D01*
X60306264Y-44257330D01*
X60287692Y-44053250D01*
X60229833Y-43856663D01*
X60134893Y-43675059D01*
X60006486Y-43515353D01*
X59849505Y-43383631D01*
X59669929Y-43284908D01*
X59474597Y-43222945D01*
X59400000Y-43214577D01*
X59400000Y-40750000D01*
X59396393Y-40713216D01*
X59393174Y-40676420D01*
X59392587Y-40674401D01*
X59392382Y-40672306D01*
X59381699Y-40636923D01*
X59371394Y-40601453D01*
X59370426Y-40599585D01*
X59369818Y-40597572D01*
X59352469Y-40564942D01*
X59335468Y-40532145D01*
X59334156Y-40530502D01*
X59333168Y-40528643D01*
X59309798Y-40499989D01*
X59286764Y-40471134D01*
X59283876Y-40468204D01*
X59283828Y-40468146D01*
X59283774Y-40468101D01*
X59282843Y-40467157D01*
X56150000Y-37334314D01*
X56150000Y-34134471D01*
X56213980Y-34093868D01*
X56320493Y-33992437D01*
X56405277Y-33872249D01*
X56465100Y-33737882D01*
X56497686Y-33594455D01*
X56500032Y-33426459D01*
X56471464Y-33282177D01*
X56415415Y-33146193D01*
X56334021Y-33023684D01*
X56230381Y-32919319D01*
X56108444Y-32837071D01*
X55972854Y-32780075D01*
X55828776Y-32750499D01*
X55681697Y-32749473D01*
X55537219Y-32777033D01*
X55400847Y-32832131D01*
X55277773Y-32912668D01*
X55172687Y-33015577D01*
X55089590Y-33136936D01*
X55031648Y-33272125D01*
X55001068Y-33415994D01*
X54999014Y-33563062D01*
X43350000Y-33563062D01*
X43350000Y-27475000D01*
X44334000Y-27475000D01*
X44334000Y-28295547D01*
X44345529Y-28353506D01*
X44368143Y-28408103D01*
X44400975Y-28457239D01*
X44442761Y-28499025D01*
X44491896Y-28531856D01*
X44546493Y-28554471D01*
X44604452Y-28566000D01*
X45425000Y-28566000D01*
X45500000Y-28491000D01*
X45500000Y-27400000D01*
X44409000Y-27400000D01*
X44334000Y-27475000D01*
X43350000Y-27475000D01*
X43350000Y-26204453D01*
X44334000Y-26204453D01*
X44334000Y-27025000D01*
X44409000Y-27100000D01*
X45500000Y-27100000D01*
X45500000Y-26009000D01*
X45800000Y-26009000D01*
X45800000Y-27100000D01*
X45820000Y-27100000D01*
X45820000Y-27400000D01*
X45800000Y-27400000D01*
X45800000Y-28491000D01*
X45875000Y-28566000D01*
X46695548Y-28566000D01*
X46753507Y-28554471D01*
X46808104Y-28531856D01*
X46857239Y-28499025D01*
X46899025Y-28457239D01*
X46931857Y-28408103D01*
X46954471Y-28353506D01*
X46966000Y-28295547D01*
X46966000Y-27733688D01*
X46973297Y-27757857D01*
X47093876Y-27984631D01*
X47256205Y-28183667D01*
X47454102Y-28347381D01*
X47680029Y-28469540D01*
X47925381Y-28545489D01*
X48180813Y-28572336D01*
X48436594Y-28549058D01*
X48682982Y-28476542D01*
X48910593Y-28357550D01*
X49110757Y-28196614D01*
X49275849Y-27999865D01*
X49399582Y-27774796D01*
X49460465Y-27582868D01*
X49513297Y-27757857D01*
X49633876Y-27984631D01*
X49663437Y-28020877D01*
X49271083Y-28413231D01*
X49219674Y-28406004D01*
X49201096Y-28405225D01*
X49182639Y-28403083D01*
X49178381Y-28403036D01*
X49103402Y-28402749D01*
X49085662Y-28404420D01*
X49067857Y-28404691D01*
X49063629Y-28405200D01*
X48987573Y-28414905D01*
X48971222Y-28418642D01*
X48954624Y-28420965D01*
X48950492Y-28421992D01*
X48873804Y-28441637D01*
X48859153Y-28446960D01*
X48844074Y-28450894D01*
X48840089Y-28452393D01*
X48763218Y-28481932D01*
X48750388Y-28488362D01*
X48736976Y-28493459D01*
X48733175Y-28495380D01*
X48656567Y-28534762D01*
X48647267Y-28540757D01*
X48637294Y-28545569D01*
X48633674Y-28547810D01*
X48579075Y-28582137D01*
X48575428Y-28584962D01*
X48571365Y-28587148D01*
X48567846Y-28589547D01*
X48552749Y-28599995D01*
X48551036Y-28601447D01*
X48549092Y-28602566D01*
X48545644Y-28605064D01*
X48531574Y-28615410D01*
X48528938Y-28617777D01*
X48525934Y-28619658D01*
X48522581Y-28622282D01*
X48508417Y-28633529D01*
X48505935Y-28635930D01*
X48503079Y-28637867D01*
X48499824Y-28640612D01*
X48484444Y-28653768D01*
X48482837Y-28655441D01*
X48480957Y-28656797D01*
X48477783Y-28659636D01*
X48460065Y-28675708D01*
X48459446Y-28676391D01*
X48458711Y-28676944D01*
X48455594Y-28679845D01*
X48434417Y-28699840D01*
X48434389Y-28699872D01*
X48431734Y-28702404D01*
X48405976Y-28727325D01*
X48405927Y-28727382D01*
X48404484Y-28728778D01*
X48373023Y-28759634D01*
X48372991Y-28759672D01*
X48372403Y-28760244D01*
X48351685Y-28780680D01*
X48351660Y-28780711D01*
X48351220Y-28781140D01*
X48320475Y-28811597D01*
X48320446Y-28811632D01*
X48319807Y-28812260D01*
X48290763Y-28841210D01*
X48290729Y-28841251D01*
X48290049Y-28841924D01*
X48263758Y-28868304D01*
X48263714Y-28868357D01*
X48262877Y-28869193D01*
X48240392Y-28891939D01*
X48240346Y-28891996D01*
X48239078Y-28893276D01*
X48221450Y-28911330D01*
X48221423Y-28911364D01*
X48218891Y-28913983D01*
X48207172Y-28926279D01*
X48205915Y-28927886D01*
X48204394Y-28929234D01*
X48201519Y-28932375D01*
X48197924Y-28936359D01*
X48194159Y-28941454D01*
X48189661Y-28945907D01*
X48186964Y-28949202D01*
X48121893Y-29029875D01*
X48117617Y-29036387D01*
X48112456Y-29042206D01*
X48109978Y-29045669D01*
X48054544Y-29124332D01*
X48049941Y-29132444D01*
X48044295Y-29139862D01*
X48042084Y-29143501D01*
X47996341Y-29220003D01*
X47991567Y-29230114D01*
X47985596Y-29239565D01*
X47983710Y-29243383D01*
X47947714Y-29317570D01*
X47943075Y-29330123D01*
X47937116Y-29342094D01*
X47935627Y-29346083D01*
X47909434Y-29417803D01*
X47905466Y-29433187D01*
X47900114Y-29448136D01*
X47899105Y-29452273D01*
X47882771Y-29521376D01*
X47880285Y-29539770D01*
X47876451Y-29557919D01*
X47876011Y-29562154D01*
X47869591Y-29628487D01*
X47869618Y-29649589D01*
X47868441Y-29670665D01*
X47868649Y-29674918D01*
X47872199Y-29738327D01*
X47875700Y-29760932D01*
X47878175Y-29783687D01*
X47879075Y-29787849D01*
X47882253Y-29802061D01*
X47665925Y-30018389D01*
X47578776Y-30000499D01*
X47431697Y-29999473D01*
X47287219Y-30027033D01*
X47150847Y-30082131D01*
X47027773Y-30162668D01*
X46922687Y-30265577D01*
X46839590Y-30386936D01*
X46781648Y-30522125D01*
X46751068Y-30665994D01*
X46749014Y-30813062D01*
X46775565Y-30957728D01*
X46829710Y-31094482D01*
X46909386Y-31218115D01*
X47011558Y-31323917D01*
X47132335Y-31407859D01*
X47267116Y-31466744D01*
X47410767Y-31498328D01*
X47557818Y-31501408D01*
X47702666Y-31475867D01*
X47839794Y-31422679D01*
X47963980Y-31343868D01*
X48070493Y-31242437D01*
X48155277Y-31122249D01*
X48215100Y-30987882D01*
X48247686Y-30844455D01*
X48247903Y-30828917D01*
X48253032Y-30836278D01*
X48254082Y-30838411D01*
X48255287Y-30839987D01*
X48262567Y-30852407D01*
X48270514Y-30861365D01*
X48277361Y-30871192D01*
X48280147Y-30874413D01*
X48284053Y-30878864D01*
X48287426Y-30882024D01*
X48290236Y-30885699D01*
X48298784Y-30893235D01*
X48302068Y-30896937D01*
X48308688Y-30901966D01*
X48309131Y-30902356D01*
X48316254Y-30909029D01*
X48317583Y-30910468D01*
X48318511Y-30911144D01*
X48327494Y-30919559D01*
X48331417Y-30922004D01*
X48334888Y-30925064D01*
X48338359Y-30927530D01*
X48345397Y-30932459D01*
X48355936Y-30938397D01*
X48365702Y-30945509D01*
X48381792Y-30952966D01*
X48397256Y-30961679D01*
X48408742Y-30965455D01*
X48419709Y-30970538D01*
X48436947Y-30974729D01*
X48453804Y-30980271D01*
X48465805Y-30981745D01*
X48477551Y-30984600D01*
X48481771Y-30985168D01*
X48490283Y-30986253D01*
X48492758Y-30986325D01*
X48495180Y-30986837D01*
X48508700Y-30987011D01*
X48512886Y-30987525D01*
X48518217Y-30987133D01*
X48522497Y-30987189D01*
X48549783Y-30987981D01*
X48552223Y-30987571D01*
X48554701Y-30987603D01*
X48581544Y-30982646D01*
X48608486Y-30978121D01*
X48610805Y-30977243D01*
X48613237Y-30976794D01*
X48617321Y-30975587D01*
X48628360Y-30972241D01*
X48630631Y-30971302D01*
X48633035Y-30970783D01*
X48658106Y-30959943D01*
X48683369Y-30949498D01*
X48685417Y-30948134D01*
X48687672Y-30947159D01*
X48691383Y-30945070D01*
X48706003Y-30936703D01*
X48717722Y-30928380D01*
X48730210Y-30921293D01*
X48733674Y-30918816D01*
X48747040Y-30909114D01*
X48747484Y-30909530D01*
X48767129Y-30924611D01*
X48786272Y-30940335D01*
X48789826Y-30942679D01*
X48833595Y-30971101D01*
X48858173Y-30983840D01*
X48882603Y-30996927D01*
X48886546Y-30998535D01*
X48933184Y-31017168D01*
X48961335Y-31025335D01*
X48989534Y-31033599D01*
X48990317Y-31033742D01*
X48990352Y-31033752D01*
X48990392Y-31033755D01*
X48993723Y-31034363D01*
X49042904Y-31042977D01*
X49066674Y-31044778D01*
X49090346Y-31047506D01*
X49094604Y-31047549D01*
X49128107Y-31047650D01*
X49150706Y-31045503D01*
X49173372Y-31044410D01*
X49177581Y-31043761D01*
X49229606Y-31035372D01*
X49254200Y-31028892D01*
X49278956Y-31023121D01*
X49282980Y-31021726D01*
X49333353Y-31003865D01*
X49353775Y-30994289D01*
X49374621Y-30985696D01*
X49378366Y-30983671D01*
X49426090Y-30957433D01*
X49442888Y-30945930D01*
X49460364Y-30935491D01*
X49463771Y-30932938D01*
X49507858Y-30899411D01*
X49521797Y-30886479D01*
X49536612Y-30874570D01*
X49539634Y-30871571D01*
X49579085Y-30831850D01*
X49590809Y-30817478D01*
X49594990Y-30813062D01*
X55749014Y-30813062D01*
X55775565Y-30957728D01*
X55829710Y-31094482D01*
X55909386Y-31218115D01*
X56011558Y-31323917D01*
X56132335Y-31407859D01*
X56267116Y-31466744D01*
X56410767Y-31498328D01*
X56557818Y-31501408D01*
X56666549Y-31482235D01*
X58600000Y-33415686D01*
X58600000Y-35214091D01*
X58539764Y-35219997D01*
X58343586Y-35279227D01*
X58162649Y-35375433D01*
X58003844Y-35504951D01*
X57873221Y-35662847D01*
X57775754Y-35843109D01*
X57715156Y-36038868D01*
X57693736Y-36242670D01*
X57712308Y-36446750D01*
X57770167Y-36643337D01*
X57865107Y-36824941D01*
X57993514Y-36984647D01*
X58150495Y-37116369D01*
X58330071Y-37215092D01*
X58440249Y-37250043D01*
X58343586Y-37279227D01*
X58162649Y-37375433D01*
X58003844Y-37504951D01*
X57873221Y-37662847D01*
X57775754Y-37843109D01*
X57715156Y-38038868D01*
X57693736Y-38242670D01*
X57712308Y-38446750D01*
X57770167Y-38643337D01*
X57865107Y-38824941D01*
X57993514Y-38984647D01*
X58150495Y-39116369D01*
X58330071Y-39215092D01*
X58525403Y-39277055D01*
X58729050Y-39299898D01*
X58743710Y-39300000D01*
X59256290Y-39300000D01*
X59460236Y-39280003D01*
X59656414Y-39220773D01*
X59837351Y-39124567D01*
X59996156Y-38995049D01*
X60126779Y-38837153D01*
X60224246Y-38656891D01*
X60284844Y-38461132D01*
X60306264Y-38257330D01*
X60287692Y-38053250D01*
X60229833Y-37856663D01*
X60134893Y-37675059D01*
X60006486Y-37515353D01*
X59849505Y-37383631D01*
X59669929Y-37284908D01*
X59559751Y-37249957D01*
X59656414Y-37220773D01*
X59837351Y-37124567D01*
X59996156Y-36995049D01*
X60126779Y-36837153D01*
X60224246Y-36656891D01*
X60284844Y-36461132D01*
X60306264Y-36257330D01*
X60287692Y-36053250D01*
X60229833Y-35856663D01*
X60134893Y-35675059D01*
X60006486Y-35515353D01*
X59849505Y-35383631D01*
X59669929Y-35284908D01*
X59474597Y-35222945D01*
X59400000Y-35214577D01*
X59400000Y-33250000D01*
X59396393Y-33213216D01*
X59393174Y-33176420D01*
X59392587Y-33174401D01*
X59392382Y-33172306D01*
X59381699Y-33136923D01*
X59371394Y-33101453D01*
X59370426Y-33099585D01*
X59369818Y-33097572D01*
X59352469Y-33064942D01*
X59335468Y-33032145D01*
X59334156Y-33030502D01*
X59333168Y-33028643D01*
X59309798Y-32999989D01*
X59286764Y-32971134D01*
X59283876Y-32968204D01*
X59283828Y-32968146D01*
X59283774Y-32968101D01*
X59282843Y-32967157D01*
X57231478Y-30915792D01*
X57247686Y-30844455D01*
X57250032Y-30676459D01*
X57221464Y-30532177D01*
X57165415Y-30396193D01*
X57084021Y-30273684D01*
X56980381Y-30169319D01*
X56858444Y-30087071D01*
X56722854Y-30030075D01*
X56578776Y-30000499D01*
X56431697Y-29999473D01*
X56287219Y-30027033D01*
X56150847Y-30082131D01*
X56027773Y-30162668D01*
X55922687Y-30265577D01*
X55839590Y-30386936D01*
X55781648Y-30522125D01*
X55751068Y-30665994D01*
X55749014Y-30813062D01*
X49594990Y-30813062D01*
X49603562Y-30804009D01*
X49606151Y-30800628D01*
X49639973Y-30755805D01*
X49649859Y-30739632D01*
X49660864Y-30724214D01*
X49662962Y-30720509D01*
X49690162Y-30671676D01*
X49698222Y-30653155D01*
X49707432Y-30635178D01*
X49708967Y-30631207D01*
X49728551Y-30579454D01*
X49734351Y-30557999D01*
X49741206Y-30536868D01*
X49742090Y-30532703D01*
X49753063Y-30479125D01*
X49755118Y-30459491D01*
X49758463Y-30440036D01*
X49758742Y-30435787D01*
X49760786Y-30400936D01*
X49759971Y-30380134D01*
X49760382Y-30359323D01*
X49760021Y-30355080D01*
X49756268Y-30314371D01*
X49752478Y-30294628D01*
X49749950Y-30274683D01*
X49748977Y-30270538D01*
X49738661Y-30227968D01*
X49732451Y-30210157D01*
X49727538Y-30191959D01*
X49726005Y-30187986D01*
X49710478Y-30148581D01*
X49703561Y-30135068D01*
X49697974Y-30120960D01*
X49696002Y-30117187D01*
X49689271Y-30104530D01*
X49683434Y-30095746D01*
X49683356Y-30095594D01*
X49683210Y-30095409D01*
X49679424Y-30089712D01*
X49670779Y-30074171D01*
X49668332Y-30070687D01*
X49648111Y-30042323D01*
X49636111Y-30028560D01*
X49625186Y-30013927D01*
X49622296Y-30010800D01*
X49594957Y-29981631D01*
X49585116Y-29972999D01*
X49576282Y-29963344D01*
X49573096Y-29960520D01*
X49541285Y-29932727D01*
X49531375Y-29925647D01*
X49522350Y-29917471D01*
X49518913Y-29914958D01*
X49485276Y-29890721D01*
X49472454Y-29883266D01*
X49460430Y-29874592D01*
X49456735Y-29872475D01*
X49423916Y-29853976D01*
X49408102Y-29846999D01*
X49392918Y-29838749D01*
X49388984Y-29837118D01*
X49370187Y-29829479D01*
X49359241Y-29826233D01*
X49348766Y-29821693D01*
X49344704Y-29820417D01*
X49329925Y-29815889D01*
X49329094Y-29815721D01*
X49328312Y-29815400D01*
X49324225Y-29814203D01*
X49302590Y-29808033D01*
X49302527Y-29808022D01*
X49299369Y-29807134D01*
X49274282Y-29800276D01*
X49274212Y-29800264D01*
X49271806Y-29799610D01*
X49258890Y-29796196D01*
X49266962Y-29786555D01*
X49306447Y-29743521D01*
X49350313Y-29699367D01*
X49396588Y-29656155D01*
X49443350Y-29615705D01*
X49488400Y-29579892D01*
X49512603Y-29562504D01*
X49517911Y-29566110D01*
X49521643Y-29567693D01*
X49525059Y-29569884D01*
X49549014Y-29579306D01*
X49572709Y-29589359D01*
X49576681Y-29590188D01*
X49580454Y-29591672D01*
X49605776Y-29596261D01*
X49630979Y-29601521D01*
X49635035Y-29601563D01*
X49639026Y-29602286D01*
X49664755Y-29601869D01*
X49690501Y-29602134D01*
X49694490Y-29601387D01*
X49698544Y-29601321D01*
X49723712Y-29595912D01*
X49749009Y-29591173D01*
X49753090Y-29589956D01*
X49758185Y-29588397D01*
X49783762Y-29577745D01*
X49809494Y-29567434D01*
X49811229Y-29566306D01*
X49813135Y-29565512D01*
X49836182Y-29550078D01*
X49859395Y-29534982D01*
X49860872Y-29533544D01*
X49862595Y-29532390D01*
X49882235Y-29512743D01*
X49902043Y-29493456D01*
X49903215Y-29491754D01*
X49904678Y-29490291D01*
X49920103Y-29467240D01*
X49935813Y-29444436D01*
X49937778Y-29440828D01*
X49937783Y-29440820D01*
X49937786Y-29440812D01*
X49937849Y-29440697D01*
X49943426Y-29430280D01*
X49951032Y-29411974D01*
X49959823Y-29394197D01*
X49961301Y-29390204D01*
X49968491Y-29370356D01*
X49968859Y-29368913D01*
X49969486Y-29367566D01*
X49970870Y-29363539D01*
X49972953Y-29357335D01*
X49976618Y-29341404D01*
X49981673Y-29325865D01*
X49982560Y-29321700D01*
X49990868Y-29281296D01*
X49993844Y-29253072D01*
X49997075Y-29224949D01*
X49997103Y-29222161D01*
X49997109Y-29222099D01*
X49997104Y-29222040D01*
X49997117Y-29220692D01*
X49997240Y-29175250D01*
X49995129Y-29153102D01*
X49994116Y-29130874D01*
X49993478Y-29126664D01*
X49985685Y-29077511D01*
X49981072Y-29059814D01*
X49977807Y-29041812D01*
X49976613Y-29037725D01*
X49961171Y-28986191D01*
X49955135Y-28971459D01*
X49950462Y-28956233D01*
X49948795Y-28952315D01*
X49925974Y-28899730D01*
X49922396Y-28893290D01*
X50316335Y-28499351D01*
X50465381Y-28545489D01*
X50720813Y-28572336D01*
X50976594Y-28549058D01*
X51222982Y-28476542D01*
X51450593Y-28357550D01*
X51650757Y-28196614D01*
X51815849Y-27999865D01*
X51939582Y-27774796D01*
X52000465Y-27582868D01*
X52053297Y-27757857D01*
X52173876Y-27984631D01*
X52336205Y-28183667D01*
X52534102Y-28347381D01*
X52760029Y-28469540D01*
X53005381Y-28545489D01*
X53260813Y-28572336D01*
X53516594Y-28549058D01*
X53762982Y-28476542D01*
X53990593Y-28357550D01*
X54190757Y-28196614D01*
X54355849Y-27999865D01*
X54479582Y-27774796D01*
X54540465Y-27582868D01*
X54593297Y-27757857D01*
X54713876Y-27984631D01*
X54876205Y-28183667D01*
X55074102Y-28347381D01*
X55300029Y-28469540D01*
X55545381Y-28545489D01*
X55800813Y-28572336D01*
X56056594Y-28549058D01*
X56302982Y-28476542D01*
X56530593Y-28357550D01*
X56730757Y-28196614D01*
X56895849Y-27999865D01*
X57019582Y-27774796D01*
X57080465Y-27582868D01*
X57133297Y-27757857D01*
X57253876Y-27984631D01*
X57416205Y-28183667D01*
X57614102Y-28347381D01*
X57840029Y-28469540D01*
X58085381Y-28545489D01*
X58340813Y-28572336D01*
X58596594Y-28549058D01*
X58842982Y-28476542D01*
X59070593Y-28357550D01*
X59270757Y-28196614D01*
X59435849Y-27999865D01*
X59559582Y-27774796D01*
X59637242Y-27529980D01*
X59665872Y-27274742D01*
X59666000Y-27256368D01*
X59666000Y-27243632D01*
X59640937Y-26988020D01*
X59566703Y-26742143D01*
X59446124Y-26515369D01*
X59283795Y-26316333D01*
X59085898Y-26152619D01*
X58859971Y-26030460D01*
X58614619Y-25954511D01*
X58359187Y-25927664D01*
X58103406Y-25950942D01*
X57857018Y-26023458D01*
X57629407Y-26142450D01*
X57429243Y-26303386D01*
X57264151Y-26500135D01*
X57140418Y-26725204D01*
X57079535Y-26917132D01*
X57026703Y-26742143D01*
X56906124Y-26515369D01*
X56743795Y-26316333D01*
X56545898Y-26152619D01*
X56319971Y-26030460D01*
X56074619Y-25954511D01*
X55819187Y-25927664D01*
X55563406Y-25950942D01*
X55317018Y-26023458D01*
X55089407Y-26142450D01*
X54889243Y-26303386D01*
X54724151Y-26500135D01*
X54600418Y-26725204D01*
X54539535Y-26917132D01*
X54486703Y-26742143D01*
X54366124Y-26515369D01*
X54203795Y-26316333D01*
X54005898Y-26152619D01*
X53779971Y-26030460D01*
X53534619Y-25954511D01*
X53279187Y-25927664D01*
X53023406Y-25950942D01*
X52777018Y-26023458D01*
X52549407Y-26142450D01*
X52349243Y-26303386D01*
X52184151Y-26500135D01*
X52060418Y-26725204D01*
X51999535Y-26917132D01*
X51946703Y-26742143D01*
X51826124Y-26515369D01*
X51663795Y-26316333D01*
X51465898Y-26152619D01*
X51239971Y-26030460D01*
X50994619Y-25954511D01*
X50739187Y-25927664D01*
X50483406Y-25950942D01*
X50237018Y-26023458D01*
X50009407Y-26142450D01*
X49809243Y-26303386D01*
X49644151Y-26500135D01*
X49520418Y-26725204D01*
X49459535Y-26917132D01*
X49406703Y-26742143D01*
X49286124Y-26515369D01*
X49123795Y-26316333D01*
X48925898Y-26152619D01*
X48699971Y-26030460D01*
X48454619Y-25954511D01*
X48199187Y-25927664D01*
X47943406Y-25950942D01*
X47697018Y-26023458D01*
X47469407Y-26142450D01*
X47269243Y-26303386D01*
X47104151Y-26500135D01*
X46980418Y-26725204D01*
X46966000Y-26770655D01*
X46966000Y-26204453D01*
X46954471Y-26146494D01*
X46931857Y-26091897D01*
X46899025Y-26042761D01*
X46857239Y-26000975D01*
X46808104Y-25968144D01*
X46753507Y-25945529D01*
X46695548Y-25934000D01*
X45875000Y-25934000D01*
X45800000Y-26009000D01*
X45500000Y-26009000D01*
X45425000Y-25934000D01*
X44604452Y-25934000D01*
X44546493Y-25945529D01*
X44491896Y-25968144D01*
X44442761Y-26000975D01*
X44400975Y-26042761D01*
X44368143Y-26091897D01*
X44345529Y-26146494D01*
X44334000Y-26204453D01*
X43350000Y-26204453D01*
X43350000Y-25017122D01*
X43364026Y-24874072D01*
X43400597Y-24752944D01*
X43459999Y-24641225D01*
X43539971Y-24543169D01*
X43637464Y-24462516D01*
X43748762Y-24402338D01*
X43869636Y-24364921D01*
X44011595Y-24350000D01*
X59982878Y-24350000D01*
X60125928Y-24364026D01*
X60125928Y-24364026D01*
G37*
X60125928Y-24364026D02*
X60247056Y-24400597D01*
X60358775Y-24459999D01*
X60456831Y-24539971D01*
X60537484Y-24637464D01*
X60597662Y-24748762D01*
X60635079Y-24869636D01*
X60650000Y-25011595D01*
X60650000Y-50982878D01*
X60635974Y-51125927D01*
X60599403Y-51247055D01*
X60540000Y-51358777D01*
X60460029Y-51456831D01*
X60362536Y-51537484D01*
X60251239Y-51597662D01*
X60130363Y-51635079D01*
X59988405Y-51650000D01*
X44017122Y-51650000D01*
X43874073Y-51635974D01*
X43752945Y-51599403D01*
X43641223Y-51540000D01*
X43543169Y-51460029D01*
X43462516Y-51362536D01*
X43402338Y-51251239D01*
X43364921Y-51130363D01*
X43350000Y-50988405D01*
X43350000Y-50242670D01*
X43693736Y-50242670D01*
X43712308Y-50446750D01*
X43770167Y-50643337D01*
X43865107Y-50824941D01*
X43993514Y-50984647D01*
X44150495Y-51116369D01*
X44330071Y-51215092D01*
X44525403Y-51277055D01*
X44729050Y-51299898D01*
X44743710Y-51300000D01*
X45256290Y-51300000D01*
X45460236Y-51280003D01*
X45656414Y-51220773D01*
X45837351Y-51124567D01*
X45996156Y-50995049D01*
X46126779Y-50837153D01*
X46224246Y-50656891D01*
X46254014Y-50560725D01*
X57747030Y-50560725D01*
X57831856Y-50783385D01*
X57953556Y-50952257D01*
X58105863Y-51094142D01*
X58282924Y-51203587D01*
X58477934Y-51276386D01*
X58683400Y-51309742D01*
X58850000Y-51232113D01*
X58850000Y-50400000D01*
X59150000Y-50400000D01*
X59150000Y-51232113D01*
X59316600Y-51309742D01*
X59522066Y-51276386D01*
X59717076Y-51203587D01*
X59894137Y-51094142D01*
X60046444Y-50952257D01*
X60168144Y-50783385D01*
X60252970Y-50560725D01*
X60213392Y-50400000D01*
X59150000Y-50400000D01*
X58850000Y-50400000D01*
X57786608Y-50400000D01*
X57747030Y-50560725D01*
X46254014Y-50560725D01*
X46284844Y-50461132D01*
X46306264Y-50257330D01*
X46287692Y-50053250D01*
X46229833Y-49856663D01*
X46134893Y-49675059D01*
X46006486Y-49515353D01*
X45849505Y-49383631D01*
X45669929Y-49284908D01*
X45474597Y-49222945D01*
X45270950Y-49200102D01*
X45256290Y-49200000D01*
X44743710Y-49200000D01*
X44539764Y-49219997D01*
X44343586Y-49279227D01*
X44162649Y-49375433D01*
X44003844Y-49504951D01*
X43873221Y-49662847D01*
X43775754Y-49843109D01*
X43715156Y-50038868D01*
X43693736Y-50242670D01*
X43350000Y-50242670D01*
X43350000Y-36242670D01*
X43693736Y-36242670D01*
X43712308Y-36446750D01*
X43770167Y-36643337D01*
X43865107Y-36824941D01*
X43993514Y-36984647D01*
X44150495Y-37116369D01*
X44330071Y-37215092D01*
X44525403Y-37277055D01*
X44729050Y-37299898D01*
X44743710Y-37300000D01*
X45256290Y-37300000D01*
X45460236Y-37280003D01*
X45538384Y-37256409D01*
X45531648Y-37272125D01*
X45501068Y-37415994D01*
X45499014Y-37563062D01*
X45517970Y-37666344D01*
X44717157Y-38467157D01*
X44693677Y-38495742D01*
X44669955Y-38524013D01*
X44668942Y-38525855D01*
X44667606Y-38527482D01*
X44650142Y-38560053D01*
X44632346Y-38592423D01*
X44631710Y-38594429D01*
X44630716Y-38596282D01*
X44619925Y-38631579D01*
X44608741Y-38666835D01*
X44608506Y-38668929D01*
X44607892Y-38670938D01*
X44604159Y-38707687D01*
X44600039Y-38744415D01*
X44600010Y-38748522D01*
X44600002Y-38748604D01*
X44600009Y-38748680D01*
X44600000Y-38750000D01*
X44600000Y-39214091D01*
X44539764Y-39219997D01*
X44343586Y-39279227D01*
X44162649Y-39375433D01*
X44003844Y-39504951D01*
X43873221Y-39662847D01*
X43775754Y-39843109D01*
X43715156Y-40038868D01*
X43693736Y-40242670D01*
X43712308Y-40446750D01*
X43770167Y-40643337D01*
X43865107Y-40824941D01*
X43993514Y-40984647D01*
X44150495Y-41116369D01*
X44330071Y-41215092D01*
X44525403Y-41277055D01*
X44600000Y-41285423D01*
X44600000Y-44615404D01*
X44527773Y-44662668D01*
X44422687Y-44765577D01*
X44339590Y-44886936D01*
X44281648Y-45022125D01*
X44251068Y-45165994D01*
X44249014Y-45313062D01*
X44275565Y-45457728D01*
X44329710Y-45594482D01*
X44409386Y-45718115D01*
X44511558Y-45823917D01*
X44632335Y-45907859D01*
X44767116Y-45966744D01*
X44910767Y-45998328D01*
X45057818Y-46001408D01*
X45202666Y-45975867D01*
X45339794Y-45922679D01*
X45463980Y-45843868D01*
X45570493Y-45742437D01*
X45655277Y-45622249D01*
X45715100Y-45487882D01*
X45747686Y-45344455D01*
X45750032Y-45176459D01*
X45721464Y-45032177D01*
X45665415Y-44896193D01*
X45584021Y-44773684D01*
X45480381Y-44669319D01*
X45400000Y-44615101D01*
X45400000Y-41285909D01*
X45460236Y-41280003D01*
X45656414Y-41220773D01*
X45837351Y-41124567D01*
X45996156Y-40995049D01*
X46126779Y-40837153D01*
X46224246Y-40656891D01*
X46284844Y-40461132D01*
X46306264Y-40257330D01*
X46287692Y-40053250D01*
X46229833Y-39856663D01*
X46134893Y-39675059D01*
X46006486Y-39515353D01*
X45849505Y-39383631D01*
X45669929Y-39284908D01*
X45474597Y-39222945D01*
X45400000Y-39214577D01*
X45400000Y-38915686D01*
X46084194Y-38231492D01*
X46160767Y-38248328D01*
X46307818Y-38251408D01*
X46452666Y-38225867D01*
X46589794Y-38172679D01*
X46713980Y-38093868D01*
X46820493Y-37992437D01*
X46905277Y-37872249D01*
X46965100Y-37737882D01*
X46997686Y-37594455D01*
X47000032Y-37426459D01*
X46971464Y-37282177D01*
X46915415Y-37146193D01*
X46834021Y-37023684D01*
X46730381Y-36919319D01*
X46608444Y-36837071D01*
X46472854Y-36780075D01*
X46328776Y-36750499D01*
X46181697Y-36749473D01*
X46173324Y-36751070D01*
X46224246Y-36656891D01*
X46284844Y-36461132D01*
X46306264Y-36257330D01*
X46287692Y-36053250D01*
X46229833Y-35856663D01*
X46134893Y-35675059D01*
X46006486Y-35515353D01*
X45849505Y-35383631D01*
X45669929Y-35284908D01*
X45474597Y-35222945D01*
X45270950Y-35200102D01*
X45256290Y-35200000D01*
X44743710Y-35200000D01*
X44539764Y-35219997D01*
X44343586Y-35279227D01*
X44162649Y-35375433D01*
X44003844Y-35504951D01*
X43873221Y-35662847D01*
X43775754Y-35843109D01*
X43715156Y-36038868D01*
X43693736Y-36242670D01*
X43350000Y-36242670D01*
X43350000Y-33563062D01*
X54999014Y-33563062D01*
X55025565Y-33707728D01*
X55079710Y-33844482D01*
X55159386Y-33968115D01*
X55261558Y-34073917D01*
X55350000Y-34135386D01*
X55350000Y-37500000D01*
X55353607Y-37536784D01*
X55356826Y-37573580D01*
X55357413Y-37575599D01*
X55357618Y-37577694D01*
X55368301Y-37613077D01*
X55378606Y-37648547D01*
X55379574Y-37650415D01*
X55380182Y-37652428D01*
X55397531Y-37685058D01*
X55414532Y-37717855D01*
X55415844Y-37719498D01*
X55416832Y-37721357D01*
X55440202Y-37750011D01*
X55463236Y-37778866D01*
X55466124Y-37781796D01*
X55466172Y-37781854D01*
X55466226Y-37781899D01*
X55467157Y-37782843D01*
X58600000Y-40915686D01*
X58600000Y-43214091D01*
X58539764Y-43219997D01*
X58343586Y-43279227D01*
X58162649Y-43375433D01*
X58003844Y-43504951D01*
X57873221Y-43662847D01*
X57775754Y-43843109D01*
X57715156Y-44038868D01*
X57693736Y-44242670D01*
X57712308Y-44446750D01*
X57770167Y-44643337D01*
X57865107Y-44824941D01*
X57993514Y-44984647D01*
X58150495Y-45116369D01*
X58330071Y-45215092D01*
X58440249Y-45250043D01*
X58343586Y-45279227D01*
X58162649Y-45375433D01*
X58003844Y-45504951D01*
X57873221Y-45662847D01*
X57775754Y-45843109D01*
X57715156Y-46038868D01*
X57693736Y-46242670D01*
X57712308Y-46446750D01*
X57770167Y-46643337D01*
X57865107Y-46824941D01*
X57993514Y-46984647D01*
X58150495Y-47116369D01*
X58330071Y-47215092D01*
X58440249Y-47250043D01*
X58343586Y-47279227D01*
X58162649Y-47375433D01*
X58003844Y-47504951D01*
X57873221Y-47662847D01*
X57775754Y-47843109D01*
X57715156Y-48038868D01*
X57693736Y-48242670D01*
X57712308Y-48446750D01*
X57738805Y-48536780D01*
X57722854Y-48530075D01*
X57578776Y-48500499D01*
X57431697Y-48499473D01*
X57333828Y-48518142D01*
X57150000Y-48334314D01*
X57150000Y-42415686D01*
X57584193Y-41981492D01*
X57660767Y-41998328D01*
X57807818Y-42001408D01*
X57952666Y-41975867D01*
X58089794Y-41922679D01*
X58213980Y-41843868D01*
X58320493Y-41742437D01*
X58405277Y-41622249D01*
X58465100Y-41487882D01*
X58497686Y-41344455D01*
X58500032Y-41176459D01*
X58471464Y-41032177D01*
X58415415Y-40896193D01*
X58334021Y-40773684D01*
X58230381Y-40669319D01*
X58108444Y-40587071D01*
X57972854Y-40530075D01*
X57828776Y-40500499D01*
X57681697Y-40499473D01*
X57537219Y-40527033D01*
X57400847Y-40582131D01*
X57277773Y-40662668D01*
X57172687Y-40765577D01*
X57089590Y-40886936D01*
X57031648Y-41022125D01*
X57001068Y-41165994D01*
X56999014Y-41313062D01*
X57017970Y-41416345D01*
X56467157Y-41967157D01*
X56443677Y-41995742D01*
X56419955Y-42024013D01*
X56418942Y-42025855D01*
X56417606Y-42027482D01*
X56400142Y-42060053D01*
X56382346Y-42092423D01*
X56381710Y-42094429D01*
X56380716Y-42096282D01*
X56369925Y-42131579D01*
X56358741Y-42166835D01*
X56358506Y-42168929D01*
X56357892Y-42170938D01*
X56354159Y-42207687D01*
X56350039Y-42244415D01*
X56350010Y-42248522D01*
X56350002Y-42248604D01*
X56350009Y-42248680D01*
X56350000Y-42250000D01*
X56350000Y-48500000D01*
X56353607Y-48536784D01*
X56356826Y-48573580D01*
X56357413Y-48575599D01*
X56357618Y-48577694D01*
X56368301Y-48613077D01*
X56378606Y-48648547D01*
X56379574Y-48650415D01*
X56380182Y-48652428D01*
X56397531Y-48685058D01*
X56414532Y-48717855D01*
X56415844Y-48719498D01*
X56416832Y-48721357D01*
X56440202Y-48750011D01*
X56463236Y-48778866D01*
X56466124Y-48781796D01*
X56466172Y-48781854D01*
X56466226Y-48781899D01*
X56467157Y-48782843D01*
X56768464Y-49084150D01*
X56751068Y-49165994D01*
X56749014Y-49313062D01*
X56775565Y-49457728D01*
X56829710Y-49594482D01*
X56909386Y-49718115D01*
X57011558Y-49823917D01*
X57132335Y-49907859D01*
X57267116Y-49966744D01*
X57410767Y-49998328D01*
X57557818Y-50001408D01*
X57702666Y-49975867D01*
X57751387Y-49956969D01*
X57786608Y-50100000D01*
X58850000Y-50100000D01*
X58850000Y-50080000D01*
X59150000Y-50080000D01*
X59150000Y-50100000D01*
X60213392Y-50100000D01*
X60252970Y-49939275D01*
X60168144Y-49716615D01*
X60046444Y-49547743D01*
X59894137Y-49405858D01*
X59717076Y-49296413D01*
X59577930Y-49244469D01*
X59656414Y-49220773D01*
X59837351Y-49124567D01*
X59996156Y-48995049D01*
X60126779Y-48837153D01*
X60224246Y-48656891D01*
X60284844Y-48461132D01*
X60306264Y-48257330D01*
X60287692Y-48053250D01*
X60229833Y-47856663D01*
X60134893Y-47675059D01*
X60006486Y-47515353D01*
X59849505Y-47383631D01*
X59669929Y-47284908D01*
X59559751Y-47249957D01*
X59656414Y-47220773D01*
X59837351Y-47124567D01*
X59996156Y-46995049D01*
X60126779Y-46837153D01*
X60224246Y-46656891D01*
X60284844Y-46461132D01*
X60306264Y-46257330D01*
X60287692Y-46053250D01*
X60229833Y-45856663D01*
X60134893Y-45675059D01*
X60006486Y-45515353D01*
X59849505Y-45383631D01*
X59669929Y-45284908D01*
X59559751Y-45249957D01*
X59656414Y-45220773D01*
X59837351Y-45124567D01*
X59996156Y-44995049D01*
X60126779Y-44837153D01*
X60224246Y-44656891D01*
X60284844Y-44461132D01*
X60306264Y-44257330D01*
X60287692Y-44053250D01*
X60229833Y-43856663D01*
X60134893Y-43675059D01*
X60006486Y-43515353D01*
X59849505Y-43383631D01*
X59669929Y-43284908D01*
X59474597Y-43222945D01*
X59400000Y-43214577D01*
X59400000Y-40750000D01*
X59396393Y-40713216D01*
X59393174Y-40676420D01*
X59392587Y-40674401D01*
X59392382Y-40672306D01*
X59381699Y-40636923D01*
X59371394Y-40601453D01*
X59370426Y-40599585D01*
X59369818Y-40597572D01*
X59352469Y-40564942D01*
X59335468Y-40532145D01*
X59334156Y-40530502D01*
X59333168Y-40528643D01*
X59309798Y-40499989D01*
X59286764Y-40471134D01*
X59283876Y-40468204D01*
X59283828Y-40468146D01*
X59283774Y-40468101D01*
X59282843Y-40467157D01*
X56150000Y-37334314D01*
X56150000Y-34134471D01*
X56213980Y-34093868D01*
X56320493Y-33992437D01*
X56405277Y-33872249D01*
X56465100Y-33737882D01*
X56497686Y-33594455D01*
X56500032Y-33426459D01*
X56471464Y-33282177D01*
X56415415Y-33146193D01*
X56334021Y-33023684D01*
X56230381Y-32919319D01*
X56108444Y-32837071D01*
X55972854Y-32780075D01*
X55828776Y-32750499D01*
X55681697Y-32749473D01*
X55537219Y-32777033D01*
X55400847Y-32832131D01*
X55277773Y-32912668D01*
X55172687Y-33015577D01*
X55089590Y-33136936D01*
X55031648Y-33272125D01*
X55001068Y-33415994D01*
X54999014Y-33563062D01*
X43350000Y-33563062D01*
X43350000Y-27475000D01*
X44334000Y-27475000D01*
X44334000Y-28295547D01*
X44345529Y-28353506D01*
X44368143Y-28408103D01*
X44400975Y-28457239D01*
X44442761Y-28499025D01*
X44491896Y-28531856D01*
X44546493Y-28554471D01*
X44604452Y-28566000D01*
X45425000Y-28566000D01*
X45500000Y-28491000D01*
X45500000Y-27400000D01*
X44409000Y-27400000D01*
X44334000Y-27475000D01*
X43350000Y-27475000D01*
X43350000Y-26204453D01*
X44334000Y-26204453D01*
X44334000Y-27025000D01*
X44409000Y-27100000D01*
X45500000Y-27100000D01*
X45500000Y-26009000D01*
X45800000Y-26009000D01*
X45800000Y-27100000D01*
X45820000Y-27100000D01*
X45820000Y-27400000D01*
X45800000Y-27400000D01*
X45800000Y-28491000D01*
X45875000Y-28566000D01*
X46695548Y-28566000D01*
X46753507Y-28554471D01*
X46808104Y-28531856D01*
X46857239Y-28499025D01*
X46899025Y-28457239D01*
X46931857Y-28408103D01*
X46954471Y-28353506D01*
X46966000Y-28295547D01*
X46966000Y-27733688D01*
X46973297Y-27757857D01*
X47093876Y-27984631D01*
X47256205Y-28183667D01*
X47454102Y-28347381D01*
X47680029Y-28469540D01*
X47925381Y-28545489D01*
X48180813Y-28572336D01*
X48436594Y-28549058D01*
X48682982Y-28476542D01*
X48910593Y-28357550D01*
X49110757Y-28196614D01*
X49275849Y-27999865D01*
X49399582Y-27774796D01*
X49460465Y-27582868D01*
X49513297Y-27757857D01*
X49633876Y-27984631D01*
X49663437Y-28020877D01*
X49271083Y-28413231D01*
X49219674Y-28406004D01*
X49201096Y-28405225D01*
X49182639Y-28403083D01*
X49178381Y-28403036D01*
X49103402Y-28402749D01*
X49085662Y-28404420D01*
X49067857Y-28404691D01*
X49063629Y-28405200D01*
X48987573Y-28414905D01*
X48971222Y-28418642D01*
X48954624Y-28420965D01*
X48950492Y-28421992D01*
X48873804Y-28441637D01*
X48859153Y-28446960D01*
X48844074Y-28450894D01*
X48840089Y-28452393D01*
X48763218Y-28481932D01*
X48750388Y-28488362D01*
X48736976Y-28493459D01*
X48733175Y-28495380D01*
X48656567Y-28534762D01*
X48647267Y-28540757D01*
X48637294Y-28545569D01*
X48633674Y-28547810D01*
X48579075Y-28582137D01*
X48575428Y-28584962D01*
X48571365Y-28587148D01*
X48567846Y-28589547D01*
X48552749Y-28599995D01*
X48551036Y-28601447D01*
X48549092Y-28602566D01*
X48545644Y-28605064D01*
X48531574Y-28615410D01*
X48528938Y-28617777D01*
X48525934Y-28619658D01*
X48522581Y-28622282D01*
X48508417Y-28633529D01*
X48505935Y-28635930D01*
X48503079Y-28637867D01*
X48499824Y-28640612D01*
X48484444Y-28653768D01*
X48482837Y-28655441D01*
X48480957Y-28656797D01*
X48477783Y-28659636D01*
X48460065Y-28675708D01*
X48459446Y-28676391D01*
X48458711Y-28676944D01*
X48455594Y-28679845D01*
X48434417Y-28699840D01*
X48434389Y-28699872D01*
X48431734Y-28702404D01*
X48405976Y-28727325D01*
X48405927Y-28727382D01*
X48404484Y-28728778D01*
X48373023Y-28759634D01*
X48372991Y-28759672D01*
X48372403Y-28760244D01*
X48351685Y-28780680D01*
X48351660Y-28780711D01*
X48351220Y-28781140D01*
X48320475Y-28811597D01*
X48320446Y-28811632D01*
X48319807Y-28812260D01*
X48290763Y-28841210D01*
X48290729Y-28841251D01*
X48290049Y-28841924D01*
X48263758Y-28868304D01*
X48263714Y-28868357D01*
X48262877Y-28869193D01*
X48240392Y-28891939D01*
X48240346Y-28891996D01*
X48239078Y-28893276D01*
X48221450Y-28911330D01*
X48221423Y-28911364D01*
X48218891Y-28913983D01*
X48207172Y-28926279D01*
X48205915Y-28927886D01*
X48204394Y-28929234D01*
X48201519Y-28932375D01*
X48197924Y-28936359D01*
X48194159Y-28941454D01*
X48189661Y-28945907D01*
X48186964Y-28949202D01*
X48121893Y-29029875D01*
X48117617Y-29036387D01*
X48112456Y-29042206D01*
X48109978Y-29045669D01*
X48054544Y-29124332D01*
X48049941Y-29132444D01*
X48044295Y-29139862D01*
X48042084Y-29143501D01*
X47996341Y-29220003D01*
X47991567Y-29230114D01*
X47985596Y-29239565D01*
X47983710Y-29243383D01*
X47947714Y-29317570D01*
X47943075Y-29330123D01*
X47937116Y-29342094D01*
X47935627Y-29346083D01*
X47909434Y-29417803D01*
X47905466Y-29433187D01*
X47900114Y-29448136D01*
X47899105Y-29452273D01*
X47882771Y-29521376D01*
X47880285Y-29539770D01*
X47876451Y-29557919D01*
X47876011Y-29562154D01*
X47869591Y-29628487D01*
X47869618Y-29649589D01*
X47868441Y-29670665D01*
X47868649Y-29674918D01*
X47872199Y-29738327D01*
X47875700Y-29760932D01*
X47878175Y-29783687D01*
X47879075Y-29787849D01*
X47882253Y-29802061D01*
X47665925Y-30018389D01*
X47578776Y-30000499D01*
X47431697Y-29999473D01*
X47287219Y-30027033D01*
X47150847Y-30082131D01*
X47027773Y-30162668D01*
X46922687Y-30265577D01*
X46839590Y-30386936D01*
X46781648Y-30522125D01*
X46751068Y-30665994D01*
X46749014Y-30813062D01*
X46775565Y-30957728D01*
X46829710Y-31094482D01*
X46909386Y-31218115D01*
X47011558Y-31323917D01*
X47132335Y-31407859D01*
X47267116Y-31466744D01*
X47410767Y-31498328D01*
X47557818Y-31501408D01*
X47702666Y-31475867D01*
X47839794Y-31422679D01*
X47963980Y-31343868D01*
X48070493Y-31242437D01*
X48155277Y-31122249D01*
X48215100Y-30987882D01*
X48247686Y-30844455D01*
X48247903Y-30828917D01*
X48253032Y-30836278D01*
X48254082Y-30838411D01*
X48255287Y-30839987D01*
X48262567Y-30852407D01*
X48270514Y-30861365D01*
X48277361Y-30871192D01*
X48280147Y-30874413D01*
X48284053Y-30878864D01*
X48287426Y-30882024D01*
X48290236Y-30885699D01*
X48298784Y-30893235D01*
X48302068Y-30896937D01*
X48308688Y-30901966D01*
X48309131Y-30902356D01*
X48316254Y-30909029D01*
X48317583Y-30910468D01*
X48318511Y-30911144D01*
X48327494Y-30919559D01*
X48331417Y-30922004D01*
X48334888Y-30925064D01*
X48338359Y-30927530D01*
X48345397Y-30932459D01*
X48355936Y-30938397D01*
X48365702Y-30945509D01*
X48381792Y-30952966D01*
X48397256Y-30961679D01*
X48408742Y-30965455D01*
X48419709Y-30970538D01*
X48436947Y-30974729D01*
X48453804Y-30980271D01*
X48465805Y-30981745D01*
X48477551Y-30984600D01*
X48481771Y-30985168D01*
X48490283Y-30986253D01*
X48492758Y-30986325D01*
X48495180Y-30986837D01*
X48508700Y-30987011D01*
X48512886Y-30987525D01*
X48518217Y-30987133D01*
X48522497Y-30987189D01*
X48549783Y-30987981D01*
X48552223Y-30987571D01*
X48554701Y-30987603D01*
X48581544Y-30982646D01*
X48608486Y-30978121D01*
X48610805Y-30977243D01*
X48613237Y-30976794D01*
X48617321Y-30975587D01*
X48628360Y-30972241D01*
X48630631Y-30971302D01*
X48633035Y-30970783D01*
X48658106Y-30959943D01*
X48683369Y-30949498D01*
X48685417Y-30948134D01*
X48687672Y-30947159D01*
X48691383Y-30945070D01*
X48706003Y-30936703D01*
X48717722Y-30928380D01*
X48730210Y-30921293D01*
X48733674Y-30918816D01*
X48747040Y-30909114D01*
X48747484Y-30909530D01*
X48767129Y-30924611D01*
X48786272Y-30940335D01*
X48789826Y-30942679D01*
X48833595Y-30971101D01*
X48858173Y-30983840D01*
X48882603Y-30996927D01*
X48886546Y-30998535D01*
X48933184Y-31017168D01*
X48961335Y-31025335D01*
X48989534Y-31033599D01*
X48990317Y-31033742D01*
X48990352Y-31033752D01*
X48990392Y-31033755D01*
X48993723Y-31034363D01*
X49042904Y-31042977D01*
X49066674Y-31044778D01*
X49090346Y-31047506D01*
X49094604Y-31047549D01*
X49128107Y-31047650D01*
X49150706Y-31045503D01*
X49173372Y-31044410D01*
X49177581Y-31043761D01*
X49229606Y-31035372D01*
X49254200Y-31028892D01*
X49278956Y-31023121D01*
X49282980Y-31021726D01*
X49333353Y-31003865D01*
X49353775Y-30994289D01*
X49374621Y-30985696D01*
X49378366Y-30983671D01*
X49426090Y-30957433D01*
X49442888Y-30945930D01*
X49460364Y-30935491D01*
X49463771Y-30932938D01*
X49507858Y-30899411D01*
X49521797Y-30886479D01*
X49536612Y-30874570D01*
X49539634Y-30871571D01*
X49579085Y-30831850D01*
X49590809Y-30817478D01*
X49594990Y-30813062D01*
X55749014Y-30813062D01*
X55775565Y-30957728D01*
X55829710Y-31094482D01*
X55909386Y-31218115D01*
X56011558Y-31323917D01*
X56132335Y-31407859D01*
X56267116Y-31466744D01*
X56410767Y-31498328D01*
X56557818Y-31501408D01*
X56666549Y-31482235D01*
X58600000Y-33415686D01*
X58600000Y-35214091D01*
X58539764Y-35219997D01*
X58343586Y-35279227D01*
X58162649Y-35375433D01*
X58003844Y-35504951D01*
X57873221Y-35662847D01*
X57775754Y-35843109D01*
X57715156Y-36038868D01*
X57693736Y-36242670D01*
X57712308Y-36446750D01*
X57770167Y-36643337D01*
X57865107Y-36824941D01*
X57993514Y-36984647D01*
X58150495Y-37116369D01*
X58330071Y-37215092D01*
X58440249Y-37250043D01*
X58343586Y-37279227D01*
X58162649Y-37375433D01*
X58003844Y-37504951D01*
X57873221Y-37662847D01*
X57775754Y-37843109D01*
X57715156Y-38038868D01*
X57693736Y-38242670D01*
X57712308Y-38446750D01*
X57770167Y-38643337D01*
X57865107Y-38824941D01*
X57993514Y-38984647D01*
X58150495Y-39116369D01*
X58330071Y-39215092D01*
X58525403Y-39277055D01*
X58729050Y-39299898D01*
X58743710Y-39300000D01*
X59256290Y-39300000D01*
X59460236Y-39280003D01*
X59656414Y-39220773D01*
X59837351Y-39124567D01*
X59996156Y-38995049D01*
X60126779Y-38837153D01*
X60224246Y-38656891D01*
X60284844Y-38461132D01*
X60306264Y-38257330D01*
X60287692Y-38053250D01*
X60229833Y-37856663D01*
X60134893Y-37675059D01*
X60006486Y-37515353D01*
X59849505Y-37383631D01*
X59669929Y-37284908D01*
X59559751Y-37249957D01*
X59656414Y-37220773D01*
X59837351Y-37124567D01*
X59996156Y-36995049D01*
X60126779Y-36837153D01*
X60224246Y-36656891D01*
X60284844Y-36461132D01*
X60306264Y-36257330D01*
X60287692Y-36053250D01*
X60229833Y-35856663D01*
X60134893Y-35675059D01*
X60006486Y-35515353D01*
X59849505Y-35383631D01*
X59669929Y-35284908D01*
X59474597Y-35222945D01*
X59400000Y-35214577D01*
X59400000Y-33250000D01*
X59396393Y-33213216D01*
X59393174Y-33176420D01*
X59392587Y-33174401D01*
X59392382Y-33172306D01*
X59381699Y-33136923D01*
X59371394Y-33101453D01*
X59370426Y-33099585D01*
X59369818Y-33097572D01*
X59352469Y-33064942D01*
X59335468Y-33032145D01*
X59334156Y-33030502D01*
X59333168Y-33028643D01*
X59309798Y-32999989D01*
X59286764Y-32971134D01*
X59283876Y-32968204D01*
X59283828Y-32968146D01*
X59283774Y-32968101D01*
X59282843Y-32967157D01*
X57231478Y-30915792D01*
X57247686Y-30844455D01*
X57250032Y-30676459D01*
X57221464Y-30532177D01*
X57165415Y-30396193D01*
X57084021Y-30273684D01*
X56980381Y-30169319D01*
X56858444Y-30087071D01*
X56722854Y-30030075D01*
X56578776Y-30000499D01*
X56431697Y-29999473D01*
X56287219Y-30027033D01*
X56150847Y-30082131D01*
X56027773Y-30162668D01*
X55922687Y-30265577D01*
X55839590Y-30386936D01*
X55781648Y-30522125D01*
X55751068Y-30665994D01*
X55749014Y-30813062D01*
X49594990Y-30813062D01*
X49603562Y-30804009D01*
X49606151Y-30800628D01*
X49639973Y-30755805D01*
X49649859Y-30739632D01*
X49660864Y-30724214D01*
X49662962Y-30720509D01*
X49690162Y-30671676D01*
X49698222Y-30653155D01*
X49707432Y-30635178D01*
X49708967Y-30631207D01*
X49728551Y-30579454D01*
X49734351Y-30557999D01*
X49741206Y-30536868D01*
X49742090Y-30532703D01*
X49753063Y-30479125D01*
X49755118Y-30459491D01*
X49758463Y-30440036D01*
X49758742Y-30435787D01*
X49760786Y-30400936D01*
X49759971Y-30380134D01*
X49760382Y-30359323D01*
X49760021Y-30355080D01*
X49756268Y-30314371D01*
X49752478Y-30294628D01*
X49749950Y-30274683D01*
X49748977Y-30270538D01*
X49738661Y-30227968D01*
X49732451Y-30210157D01*
X49727538Y-30191959D01*
X49726005Y-30187986D01*
X49710478Y-30148581D01*
X49703561Y-30135068D01*
X49697974Y-30120960D01*
X49696002Y-30117187D01*
X49689271Y-30104530D01*
X49683434Y-30095746D01*
X49683356Y-30095594D01*
X49683210Y-30095409D01*
X49679424Y-30089712D01*
X49670779Y-30074171D01*
X49668332Y-30070687D01*
X49648111Y-30042323D01*
X49636111Y-30028560D01*
X49625186Y-30013927D01*
X49622296Y-30010800D01*
X49594957Y-29981631D01*
X49585116Y-29972999D01*
X49576282Y-29963344D01*
X49573096Y-29960520D01*
X49541285Y-29932727D01*
X49531375Y-29925647D01*
X49522350Y-29917471D01*
X49518913Y-29914958D01*
X49485276Y-29890721D01*
X49472454Y-29883266D01*
X49460430Y-29874592D01*
X49456735Y-29872475D01*
X49423916Y-29853976D01*
X49408102Y-29846999D01*
X49392918Y-29838749D01*
X49388984Y-29837118D01*
X49370187Y-29829479D01*
X49359241Y-29826233D01*
X49348766Y-29821693D01*
X49344704Y-29820417D01*
X49329925Y-29815889D01*
X49329094Y-29815721D01*
X49328312Y-29815400D01*
X49324225Y-29814203D01*
X49302590Y-29808033D01*
X49302527Y-29808022D01*
X49299369Y-29807134D01*
X49274282Y-29800276D01*
X49274212Y-29800264D01*
X49271806Y-29799610D01*
X49258890Y-29796196D01*
X49266962Y-29786555D01*
X49306447Y-29743521D01*
X49350313Y-29699367D01*
X49396588Y-29656155D01*
X49443350Y-29615705D01*
X49488400Y-29579892D01*
X49512603Y-29562504D01*
X49517911Y-29566110D01*
X49521643Y-29567693D01*
X49525059Y-29569884D01*
X49549014Y-29579306D01*
X49572709Y-29589359D01*
X49576681Y-29590188D01*
X49580454Y-29591672D01*
X49605776Y-29596261D01*
X49630979Y-29601521D01*
X49635035Y-29601563D01*
X49639026Y-29602286D01*
X49664755Y-29601869D01*
X49690501Y-29602134D01*
X49694490Y-29601387D01*
X49698544Y-29601321D01*
X49723712Y-29595912D01*
X49749009Y-29591173D01*
X49753090Y-29589956D01*
X49758185Y-29588397D01*
X49783762Y-29577745D01*
X49809494Y-29567434D01*
X49811229Y-29566306D01*
X49813135Y-29565512D01*
X49836182Y-29550078D01*
X49859395Y-29534982D01*
X49860872Y-29533544D01*
X49862595Y-29532390D01*
X49882235Y-29512743D01*
X49902043Y-29493456D01*
X49903215Y-29491754D01*
X49904678Y-29490291D01*
X49920103Y-29467240D01*
X49935813Y-29444436D01*
X49937778Y-29440828D01*
X49937783Y-29440820D01*
X49937786Y-29440812D01*
X49937849Y-29440697D01*
X49943426Y-29430280D01*
X49951032Y-29411974D01*
X49959823Y-29394197D01*
X49961301Y-29390204D01*
X49968491Y-29370356D01*
X49968859Y-29368913D01*
X49969486Y-29367566D01*
X49970870Y-29363539D01*
X49972953Y-29357335D01*
X49976618Y-29341404D01*
X49981673Y-29325865D01*
X49982560Y-29321700D01*
X49990868Y-29281296D01*
X49993844Y-29253072D01*
X49997075Y-29224949D01*
X49997103Y-29222161D01*
X49997109Y-29222099D01*
X49997104Y-29222040D01*
X49997117Y-29220692D01*
X49997240Y-29175250D01*
X49995129Y-29153102D01*
X49994116Y-29130874D01*
X49993478Y-29126664D01*
X49985685Y-29077511D01*
X49981072Y-29059814D01*
X49977807Y-29041812D01*
X49976613Y-29037725D01*
X49961171Y-28986191D01*
X49955135Y-28971459D01*
X49950462Y-28956233D01*
X49948795Y-28952315D01*
X49925974Y-28899730D01*
X49922396Y-28893290D01*
X50316335Y-28499351D01*
X50465381Y-28545489D01*
X50720813Y-28572336D01*
X50976594Y-28549058D01*
X51222982Y-28476542D01*
X51450593Y-28357550D01*
X51650757Y-28196614D01*
X51815849Y-27999865D01*
X51939582Y-27774796D01*
X52000465Y-27582868D01*
X52053297Y-27757857D01*
X52173876Y-27984631D01*
X52336205Y-28183667D01*
X52534102Y-28347381D01*
X52760029Y-28469540D01*
X53005381Y-28545489D01*
X53260813Y-28572336D01*
X53516594Y-28549058D01*
X53762982Y-28476542D01*
X53990593Y-28357550D01*
X54190757Y-28196614D01*
X54355849Y-27999865D01*
X54479582Y-27774796D01*
X54540465Y-27582868D01*
X54593297Y-27757857D01*
X54713876Y-27984631D01*
X54876205Y-28183667D01*
X55074102Y-28347381D01*
X55300029Y-28469540D01*
X55545381Y-28545489D01*
X55800813Y-28572336D01*
X56056594Y-28549058D01*
X56302982Y-28476542D01*
X56530593Y-28357550D01*
X56730757Y-28196614D01*
X56895849Y-27999865D01*
X57019582Y-27774796D01*
X57080465Y-27582868D01*
X57133297Y-27757857D01*
X57253876Y-27984631D01*
X57416205Y-28183667D01*
X57614102Y-28347381D01*
X57840029Y-28469540D01*
X58085381Y-28545489D01*
X58340813Y-28572336D01*
X58596594Y-28549058D01*
X58842982Y-28476542D01*
X59070593Y-28357550D01*
X59270757Y-28196614D01*
X59435849Y-27999865D01*
X59559582Y-27774796D01*
X59637242Y-27529980D01*
X59665872Y-27274742D01*
X59666000Y-27256368D01*
X59666000Y-27243632D01*
X59640937Y-26988020D01*
X59566703Y-26742143D01*
X59446124Y-26515369D01*
X59283795Y-26316333D01*
X59085898Y-26152619D01*
X58859971Y-26030460D01*
X58614619Y-25954511D01*
X58359187Y-25927664D01*
X58103406Y-25950942D01*
X57857018Y-26023458D01*
X57629407Y-26142450D01*
X57429243Y-26303386D01*
X57264151Y-26500135D01*
X57140418Y-26725204D01*
X57079535Y-26917132D01*
X57026703Y-26742143D01*
X56906124Y-26515369D01*
X56743795Y-26316333D01*
X56545898Y-26152619D01*
X56319971Y-26030460D01*
X56074619Y-25954511D01*
X55819187Y-25927664D01*
X55563406Y-25950942D01*
X55317018Y-26023458D01*
X55089407Y-26142450D01*
X54889243Y-26303386D01*
X54724151Y-26500135D01*
X54600418Y-26725204D01*
X54539535Y-26917132D01*
X54486703Y-26742143D01*
X54366124Y-26515369D01*
X54203795Y-26316333D01*
X54005898Y-26152619D01*
X53779971Y-26030460D01*
X53534619Y-25954511D01*
X53279187Y-25927664D01*
X53023406Y-25950942D01*
X52777018Y-26023458D01*
X52549407Y-26142450D01*
X52349243Y-26303386D01*
X52184151Y-26500135D01*
X52060418Y-26725204D01*
X51999535Y-26917132D01*
X51946703Y-26742143D01*
X51826124Y-26515369D01*
X51663795Y-26316333D01*
X51465898Y-26152619D01*
X51239971Y-26030460D01*
X50994619Y-25954511D01*
X50739187Y-25927664D01*
X50483406Y-25950942D01*
X50237018Y-26023458D01*
X50009407Y-26142450D01*
X49809243Y-26303386D01*
X49644151Y-26500135D01*
X49520418Y-26725204D01*
X49459535Y-26917132D01*
X49406703Y-26742143D01*
X49286124Y-26515369D01*
X49123795Y-26316333D01*
X48925898Y-26152619D01*
X48699971Y-26030460D01*
X48454619Y-25954511D01*
X48199187Y-25927664D01*
X47943406Y-25950942D01*
X47697018Y-26023458D01*
X47469407Y-26142450D01*
X47269243Y-26303386D01*
X47104151Y-26500135D01*
X46980418Y-26725204D01*
X46966000Y-26770655D01*
X46966000Y-26204453D01*
X46954471Y-26146494D01*
X46931857Y-26091897D01*
X46899025Y-26042761D01*
X46857239Y-26000975D01*
X46808104Y-25968144D01*
X46753507Y-25945529D01*
X46695548Y-25934000D01*
X45875000Y-25934000D01*
X45800000Y-26009000D01*
X45500000Y-26009000D01*
X45425000Y-25934000D01*
X44604452Y-25934000D01*
X44546493Y-25945529D01*
X44491896Y-25968144D01*
X44442761Y-26000975D01*
X44400975Y-26042761D01*
X44368143Y-26091897D01*
X44345529Y-26146494D01*
X44334000Y-26204453D01*
X43350000Y-26204453D01*
X43350000Y-25017122D01*
X43364026Y-24874072D01*
X43400597Y-24752944D01*
X43459999Y-24641225D01*
X43539971Y-24543169D01*
X43637464Y-24462516D01*
X43748762Y-24402338D01*
X43869636Y-24364921D01*
X44011595Y-24350000D01*
X59982878Y-24350000D01*
X60125928Y-24364026D01*
M02*
