G04 #@! TF.FileFunction,Legend,Bot*
%FSLAX46Y46*%
G04 Gerber Fmt 4.6, Leading zero omitted, Abs format (unit mm)*
G04 Created by KiCad (PCBNEW 4.0.5) date Sat Mar 11 22:07:51 2017*
%MOMM*%
%LPD*%
G01*
G04 APERTURE LIST*
%ADD10C,0.101600*%
%ADD11C,0.203200*%
%ADD12C,0.200000*%
%ADD13C,0.125000*%
%ADD14C,0.152400*%
%ADD15C,0.010000*%
%ADD16O,2.000000X1.500000*%
%ADD17O,2.032000X2.032000*%
%ADD18R,2.032000X2.032000*%
G04 APERTURE END LIST*
D10*
D11*
X57000000Y-33750000D02*
X47000000Y-33750000D01*
X57500000Y-33250000D02*
X57000000Y-33750000D01*
X57500000Y-30250000D02*
X57500000Y-33250000D01*
X57000000Y-29750000D02*
X57500000Y-30250000D01*
X47000000Y-29750000D02*
X57000000Y-29750000D01*
X46500000Y-30250000D02*
X47000000Y-29750000D01*
X46500000Y-33250000D02*
X46500000Y-30250000D01*
X47000000Y-33750000D02*
X46500000Y-33250000D01*
X52000000Y-30500000D02*
X52000000Y-31500000D01*
X52000000Y-30500000D02*
X52500000Y-31000000D01*
X52000000Y-30500000D02*
X51500000Y-31000000D01*
X55000000Y-30500000D02*
X55000000Y-31500000D01*
X55000000Y-30500000D02*
X54500000Y-31000000D01*
X55000000Y-30500000D02*
X55500000Y-31000000D01*
X49000000Y-30500000D02*
X49500000Y-31000000D01*
X49000000Y-30500000D02*
X49000000Y-31500000D01*
X49000000Y-30500000D02*
X48500000Y-31000000D01*
D12*
X56666667Y-31952381D02*
X56428572Y-32952381D01*
X56238095Y-32238095D01*
X56047619Y-32952381D01*
X55809524Y-31952381D01*
X55428572Y-32952381D02*
X55428572Y-32285714D01*
X55428572Y-31952381D02*
X55476191Y-32000000D01*
X55428572Y-32047619D01*
X55380953Y-32000000D01*
X55428572Y-31952381D01*
X55428572Y-32047619D01*
X54619048Y-32428571D02*
X54952382Y-32428571D01*
X54952382Y-32952381D02*
X54952382Y-31952381D01*
X54476191Y-31952381D01*
X54095239Y-32952381D02*
X54095239Y-32285714D01*
X54095239Y-31952381D02*
X54142858Y-32000000D01*
X54095239Y-32047619D01*
X54047620Y-32000000D01*
X54095239Y-31952381D01*
X54095239Y-32047619D01*
X52904763Y-32666667D02*
X52428572Y-32666667D01*
X53000001Y-32952381D02*
X52666668Y-31952381D01*
X52333334Y-32952381D01*
X52000001Y-32285714D02*
X52000001Y-32952381D01*
X52000001Y-32380952D02*
X51952382Y-32333333D01*
X51857144Y-32285714D01*
X51714286Y-32285714D01*
X51619048Y-32333333D01*
X51571429Y-32428571D01*
X51571429Y-32952381D01*
X51238096Y-32285714D02*
X50857144Y-32285714D01*
X51095239Y-31952381D02*
X51095239Y-32809524D01*
X51047620Y-32904762D01*
X50952382Y-32952381D01*
X50857144Y-32952381D01*
X50142857Y-32904762D02*
X50238095Y-32952381D01*
X50428572Y-32952381D01*
X50523810Y-32904762D01*
X50571429Y-32809524D01*
X50571429Y-32428571D01*
X50523810Y-32333333D01*
X50428572Y-32285714D01*
X50238095Y-32285714D01*
X50142857Y-32333333D01*
X50095238Y-32428571D01*
X50095238Y-32523810D01*
X50571429Y-32619048D01*
X49666667Y-32285714D02*
X49666667Y-32952381D01*
X49666667Y-32380952D02*
X49619048Y-32333333D01*
X49523810Y-32285714D01*
X49380952Y-32285714D01*
X49285714Y-32333333D01*
X49238095Y-32428571D01*
X49238095Y-32952381D01*
X48761905Y-32285714D02*
X48761905Y-32952381D01*
X48761905Y-32380952D02*
X48714286Y-32333333D01*
X48619048Y-32285714D01*
X48476190Y-32285714D01*
X48380952Y-32333333D01*
X48333333Y-32428571D01*
X48333333Y-32952381D01*
X47428571Y-32952381D02*
X47428571Y-32428571D01*
X47476190Y-32333333D01*
X47571428Y-32285714D01*
X47761905Y-32285714D01*
X47857143Y-32333333D01*
X47428571Y-32904762D02*
X47523809Y-32952381D01*
X47761905Y-32952381D01*
X47857143Y-32904762D01*
X47904762Y-32809524D01*
X47904762Y-32714286D01*
X47857143Y-32619048D01*
X47761905Y-32571429D01*
X47523809Y-32571429D01*
X47428571Y-32523810D01*
D13*
X59521428Y-42722619D02*
X59442857Y-42748810D01*
X59311904Y-42748810D01*
X59259523Y-42722619D01*
X59233333Y-42696429D01*
X59207142Y-42644048D01*
X59207142Y-42591667D01*
X59233333Y-42539286D01*
X59259523Y-42513095D01*
X59311904Y-42486905D01*
X59416666Y-42460714D01*
X59469047Y-42434524D01*
X59495238Y-42408333D01*
X59521428Y-42355952D01*
X59521428Y-42303571D01*
X59495238Y-42251190D01*
X59469047Y-42225000D01*
X59416666Y-42198810D01*
X59285714Y-42198810D01*
X59207142Y-42225000D01*
X58971428Y-42748810D02*
X58971428Y-42198810D01*
X58761904Y-42198810D01*
X58709523Y-42225000D01*
X58683332Y-42251190D01*
X58657142Y-42303571D01*
X58657142Y-42382143D01*
X58683332Y-42434524D01*
X58709523Y-42460714D01*
X58761904Y-42486905D01*
X58971428Y-42486905D01*
X58421428Y-42748810D02*
X58421428Y-42198810D01*
X58238094Y-42591667D01*
X58054761Y-42198810D01*
X58054761Y-42748810D01*
X57478571Y-42696429D02*
X57504761Y-42722619D01*
X57583333Y-42748810D01*
X57635714Y-42748810D01*
X57714285Y-42722619D01*
X57766666Y-42670238D01*
X57792857Y-42617857D01*
X57819047Y-42513095D01*
X57819047Y-42434524D01*
X57792857Y-42329762D01*
X57766666Y-42277381D01*
X57714285Y-42225000D01*
X57635714Y-42198810D01*
X57583333Y-42198810D01*
X57504761Y-42225000D01*
X57478571Y-42251190D01*
D12*
X55583334Y-24547619D02*
X55250000Y-25023810D01*
X55011905Y-24547619D02*
X55011905Y-25547619D01*
X55392858Y-25547619D01*
X55488096Y-25500000D01*
X55535715Y-25452381D01*
X55583334Y-25357143D01*
X55583334Y-25214286D01*
X55535715Y-25119048D01*
X55488096Y-25071429D01*
X55392858Y-25023810D01*
X55011905Y-25023810D01*
X55916667Y-25547619D02*
X56583334Y-24547619D01*
X56583334Y-25547619D02*
X55916667Y-24547619D01*
X52488095Y-25547619D02*
X53059524Y-25547619D01*
X52773809Y-24547619D02*
X52773809Y-25547619D01*
X53297619Y-25547619D02*
X53964286Y-24547619D01*
X53964286Y-25547619D02*
X53297619Y-24547619D01*
X50047619Y-25547619D02*
X50380952Y-24547619D01*
X50714286Y-25547619D01*
X51047619Y-24928571D02*
X51809524Y-24928571D01*
X51428572Y-24547619D02*
X51428572Y-25309524D01*
X56738095Y-49750000D02*
X56833333Y-49702381D01*
X56976190Y-49702381D01*
X57119048Y-49750000D01*
X57214286Y-49845238D01*
X57261905Y-49940476D01*
X57309524Y-50130952D01*
X57309524Y-50273810D01*
X57261905Y-50464286D01*
X57214286Y-50559524D01*
X57119048Y-50654762D01*
X56976190Y-50702381D01*
X56880952Y-50702381D01*
X56738095Y-50654762D01*
X56690476Y-50607143D01*
X56690476Y-50273810D01*
X56880952Y-50273810D01*
X56261905Y-50702381D02*
X56261905Y-49702381D01*
X55690476Y-50702381D01*
X55690476Y-49702381D01*
X55214286Y-50702381D02*
X55214286Y-49702381D01*
X54976191Y-49702381D01*
X54833333Y-49750000D01*
X54738095Y-49845238D01*
X54690476Y-49940476D01*
X54642857Y-50130952D01*
X54642857Y-50273810D01*
X54690476Y-50464286D01*
X54738095Y-50559524D01*
X54833333Y-50654762D01*
X54976191Y-50702381D01*
X55214286Y-50702381D01*
X56738095Y-47750000D02*
X56833333Y-47702381D01*
X56976190Y-47702381D01*
X57119048Y-47750000D01*
X57214286Y-47845238D01*
X57261905Y-47940476D01*
X57309524Y-48130952D01*
X57309524Y-48273810D01*
X57261905Y-48464286D01*
X57214286Y-48559524D01*
X57119048Y-48654762D01*
X56976190Y-48702381D01*
X56880952Y-48702381D01*
X56738095Y-48654762D01*
X56690476Y-48607143D01*
X56690476Y-48273810D01*
X56880952Y-48273810D01*
X56261905Y-48702381D02*
X56261905Y-47702381D01*
X55880952Y-47702381D01*
X55785714Y-47750000D01*
X55738095Y-47797619D01*
X55690476Y-47892857D01*
X55690476Y-48035714D01*
X55738095Y-48130952D01*
X55785714Y-48178571D01*
X55880952Y-48226190D01*
X56261905Y-48226190D01*
X55261905Y-48702381D02*
X55261905Y-47702381D01*
X54595239Y-47702381D02*
X54404762Y-47702381D01*
X54309524Y-47750000D01*
X54214286Y-47845238D01*
X54166667Y-48035714D01*
X54166667Y-48369048D01*
X54214286Y-48559524D01*
X54309524Y-48654762D01*
X54404762Y-48702381D01*
X54595239Y-48702381D01*
X54690477Y-48654762D01*
X54785715Y-48559524D01*
X54833334Y-48369048D01*
X54833334Y-48035714D01*
X54785715Y-47845238D01*
X54690477Y-47750000D01*
X54595239Y-47702381D01*
X53214286Y-48702381D02*
X53785715Y-48702381D01*
X53500001Y-48702381D02*
X53500001Y-47702381D01*
X53595239Y-47845238D01*
X53690477Y-47940476D01*
X53785715Y-47988095D01*
X52309524Y-47702381D02*
X52785715Y-47702381D01*
X52833334Y-48178571D01*
X52785715Y-48130952D01*
X52690477Y-48083333D01*
X52452381Y-48083333D01*
X52357143Y-48130952D01*
X52309524Y-48178571D01*
X52261905Y-48273810D01*
X52261905Y-48511905D01*
X52309524Y-48607143D01*
X52357143Y-48654762D01*
X52452381Y-48702381D01*
X52690477Y-48702381D01*
X52785715Y-48654762D01*
X52833334Y-48607143D01*
X56738095Y-45750000D02*
X56833333Y-45702381D01*
X56976190Y-45702381D01*
X57119048Y-45750000D01*
X57214286Y-45845238D01*
X57261905Y-45940476D01*
X57309524Y-46130952D01*
X57309524Y-46273810D01*
X57261905Y-46464286D01*
X57214286Y-46559524D01*
X57119048Y-46654762D01*
X56976190Y-46702381D01*
X56880952Y-46702381D01*
X56738095Y-46654762D01*
X56690476Y-46607143D01*
X56690476Y-46273810D01*
X56880952Y-46273810D01*
X56261905Y-46702381D02*
X56261905Y-45702381D01*
X55880952Y-45702381D01*
X55785714Y-45750000D01*
X55738095Y-45797619D01*
X55690476Y-45892857D01*
X55690476Y-46035714D01*
X55738095Y-46130952D01*
X55785714Y-46178571D01*
X55880952Y-46226190D01*
X56261905Y-46226190D01*
X55261905Y-46702381D02*
X55261905Y-45702381D01*
X54595239Y-45702381D02*
X54404762Y-45702381D01*
X54309524Y-45750000D01*
X54214286Y-45845238D01*
X54166667Y-46035714D01*
X54166667Y-46369048D01*
X54214286Y-46559524D01*
X54309524Y-46654762D01*
X54404762Y-46702381D01*
X54595239Y-46702381D01*
X54690477Y-46654762D01*
X54785715Y-46559524D01*
X54833334Y-46369048D01*
X54833334Y-46035714D01*
X54785715Y-45845238D01*
X54690477Y-45750000D01*
X54595239Y-45702381D01*
X53785715Y-45797619D02*
X53738096Y-45750000D01*
X53642858Y-45702381D01*
X53404762Y-45702381D01*
X53309524Y-45750000D01*
X53261905Y-45797619D01*
X53214286Y-45892857D01*
X53214286Y-45988095D01*
X53261905Y-46130952D01*
X53833334Y-46702381D01*
X53214286Y-46702381D01*
X56738095Y-43750000D02*
X56833333Y-43702381D01*
X56976190Y-43702381D01*
X57119048Y-43750000D01*
X57214286Y-43845238D01*
X57261905Y-43940476D01*
X57309524Y-44130952D01*
X57309524Y-44273810D01*
X57261905Y-44464286D01*
X57214286Y-44559524D01*
X57119048Y-44654762D01*
X56976190Y-44702381D01*
X56880952Y-44702381D01*
X56738095Y-44654762D01*
X56690476Y-44607143D01*
X56690476Y-44273810D01*
X56880952Y-44273810D01*
X56261905Y-44702381D02*
X56261905Y-43702381D01*
X55880952Y-43702381D01*
X55785714Y-43750000D01*
X55738095Y-43797619D01*
X55690476Y-43892857D01*
X55690476Y-44035714D01*
X55738095Y-44130952D01*
X55785714Y-44178571D01*
X55880952Y-44226190D01*
X56261905Y-44226190D01*
X55261905Y-44702381D02*
X55261905Y-43702381D01*
X54595239Y-43702381D02*
X54404762Y-43702381D01*
X54309524Y-43750000D01*
X54214286Y-43845238D01*
X54166667Y-44035714D01*
X54166667Y-44369048D01*
X54214286Y-44559524D01*
X54309524Y-44654762D01*
X54404762Y-44702381D01*
X54595239Y-44702381D01*
X54690477Y-44654762D01*
X54785715Y-44559524D01*
X54833334Y-44369048D01*
X54833334Y-44035714D01*
X54785715Y-43845238D01*
X54690477Y-43750000D01*
X54595239Y-43702381D01*
X53547620Y-43702381D02*
X53452381Y-43702381D01*
X53357143Y-43750000D01*
X53309524Y-43797619D01*
X53261905Y-43892857D01*
X53214286Y-44083333D01*
X53214286Y-44321429D01*
X53261905Y-44511905D01*
X53309524Y-44607143D01*
X53357143Y-44654762D01*
X53452381Y-44702381D01*
X53547620Y-44702381D01*
X53642858Y-44654762D01*
X53690477Y-44607143D01*
X53738096Y-44511905D01*
X53785715Y-44321429D01*
X53785715Y-44083333D01*
X53738096Y-43892857D01*
X53690477Y-43797619D01*
X53642858Y-43750000D01*
X53547620Y-43702381D01*
X56690476Y-38702381D02*
X57023810Y-38226190D01*
X57261905Y-38702381D02*
X57261905Y-37702381D01*
X56880952Y-37702381D01*
X56785714Y-37750000D01*
X56738095Y-37797619D01*
X56690476Y-37892857D01*
X56690476Y-38035714D01*
X56738095Y-38130952D01*
X56785714Y-38178571D01*
X56880952Y-38226190D01*
X57261905Y-38226190D01*
X56357143Y-37702381D02*
X55690476Y-38702381D01*
X55690476Y-37702381D02*
X56357143Y-38702381D01*
X55309524Y-38702381D02*
X55309524Y-37702381D01*
X55071429Y-37702381D01*
X54928571Y-37750000D01*
X54833333Y-37845238D01*
X54785714Y-37940476D01*
X54738095Y-38130952D01*
X54738095Y-38273810D01*
X54785714Y-38464286D01*
X54833333Y-38559524D01*
X54928571Y-38654762D01*
X55071429Y-38702381D01*
X55309524Y-38702381D01*
X57404762Y-35702381D02*
X56833333Y-35702381D01*
X57119048Y-36702381D02*
X57119048Y-35702381D01*
X56595238Y-35702381D02*
X55928571Y-36702381D01*
X55928571Y-35702381D02*
X56595238Y-36702381D01*
X55547619Y-36702381D02*
X55547619Y-35702381D01*
X55309524Y-35702381D01*
X55166666Y-35750000D01*
X55071428Y-35845238D01*
X55023809Y-35940476D01*
X54976190Y-36130952D01*
X54976190Y-36273810D01*
X55023809Y-36464286D01*
X55071428Y-36559524D01*
X55166666Y-36654762D01*
X55309524Y-36702381D01*
X55547619Y-36702381D01*
X44738096Y-25500000D02*
X44642858Y-25547619D01*
X44500001Y-25547619D01*
X44357143Y-25500000D01*
X44261905Y-25404762D01*
X44214286Y-25309524D01*
X44166667Y-25119048D01*
X44166667Y-24976190D01*
X44214286Y-24785714D01*
X44261905Y-24690476D01*
X44357143Y-24595238D01*
X44500001Y-24547619D01*
X44595239Y-24547619D01*
X44738096Y-24595238D01*
X44785715Y-24642857D01*
X44785715Y-24976190D01*
X44595239Y-24976190D01*
X45214286Y-24547619D02*
X45214286Y-25547619D01*
X45785715Y-24547619D01*
X45785715Y-25547619D01*
X46261905Y-24547619D02*
X46261905Y-25547619D01*
X46500000Y-25547619D01*
X46642858Y-25500000D01*
X46738096Y-25404762D01*
X46785715Y-25309524D01*
X46833334Y-25119048D01*
X46833334Y-24976190D01*
X46785715Y-24785714D01*
X46738096Y-24690476D01*
X46642858Y-24595238D01*
X46500000Y-24547619D01*
X46261905Y-24547619D01*
D11*
X49261905Y-49702381D02*
X48928572Y-50702381D01*
X48595238Y-49702381D01*
X47690476Y-50607143D02*
X47738095Y-50654762D01*
X47880952Y-50702381D01*
X47976190Y-50702381D01*
X48119048Y-50654762D01*
X48214286Y-50559524D01*
X48261905Y-50464286D01*
X48309524Y-50273810D01*
X48309524Y-50130952D01*
X48261905Y-49940476D01*
X48214286Y-49845238D01*
X48119048Y-49750000D01*
X47976190Y-49702381D01*
X47880952Y-49702381D01*
X47738095Y-49750000D01*
X47690476Y-49797619D01*
X46690476Y-50607143D02*
X46738095Y-50654762D01*
X46880952Y-50702381D01*
X46976190Y-50702381D01*
X47119048Y-50654762D01*
X47214286Y-50559524D01*
X47261905Y-50464286D01*
X47309524Y-50273810D01*
X47309524Y-50130952D01*
X47261905Y-49940476D01*
X47214286Y-49845238D01*
X47119048Y-49750000D01*
X46976190Y-49702381D01*
X46880952Y-49702381D01*
X46738095Y-49750000D01*
X46690476Y-49797619D01*
D12*
X50500000Y-40607143D02*
X50547619Y-40654762D01*
X50690476Y-40702381D01*
X50785714Y-40702381D01*
X50928572Y-40654762D01*
X51023810Y-40559524D01*
X51071429Y-40464286D01*
X51119048Y-40273810D01*
X51119048Y-40130952D01*
X51071429Y-39940476D01*
X51023810Y-39845238D01*
X50928572Y-39750000D01*
X50785714Y-39702381D01*
X50690476Y-39702381D01*
X50547619Y-39750000D01*
X50500000Y-39797619D01*
X50071429Y-40702381D02*
X50071429Y-39702381D01*
X50071429Y-40178571D02*
X49500000Y-40178571D01*
X49500000Y-40702381D02*
X49500000Y-39702381D01*
X49261905Y-40797619D02*
X48500000Y-40797619D01*
X48261905Y-40702381D02*
X48261905Y-39702381D01*
X47880952Y-39702381D01*
X47785714Y-39750000D01*
X47738095Y-39797619D01*
X47690476Y-39892857D01*
X47690476Y-40035714D01*
X47738095Y-40130952D01*
X47785714Y-40178571D01*
X47880952Y-40226190D01*
X48261905Y-40226190D01*
X47261905Y-40702381D02*
X47261905Y-39702381D01*
X47023810Y-39702381D01*
X46880952Y-39750000D01*
X46785714Y-39845238D01*
X46738095Y-39940476D01*
X46690476Y-40130952D01*
X46690476Y-40273810D01*
X46738095Y-40464286D01*
X46785714Y-40559524D01*
X46880952Y-40654762D01*
X47023810Y-40702381D01*
X47261905Y-40702381D01*
X50214286Y-36702381D02*
X50547620Y-36226190D01*
X50785715Y-36702381D02*
X50785715Y-35702381D01*
X50404762Y-35702381D01*
X50309524Y-35750000D01*
X50261905Y-35797619D01*
X50214286Y-35892857D01*
X50214286Y-36035714D01*
X50261905Y-36130952D01*
X50309524Y-36178571D01*
X50404762Y-36226190D01*
X50785715Y-36226190D01*
X49785715Y-36178571D02*
X49452381Y-36178571D01*
X49309524Y-36702381D02*
X49785715Y-36702381D01*
X49785715Y-35702381D01*
X49309524Y-35702381D01*
X48928572Y-36654762D02*
X48785715Y-36702381D01*
X48547619Y-36702381D01*
X48452381Y-36654762D01*
X48404762Y-36607143D01*
X48357143Y-36511905D01*
X48357143Y-36416667D01*
X48404762Y-36321429D01*
X48452381Y-36273810D01*
X48547619Y-36226190D01*
X48738096Y-36178571D01*
X48833334Y-36130952D01*
X48880953Y-36083333D01*
X48928572Y-35988095D01*
X48928572Y-35892857D01*
X48880953Y-35797619D01*
X48833334Y-35750000D01*
X48738096Y-35702381D01*
X48500000Y-35702381D01*
X48357143Y-35750000D01*
X47928572Y-36178571D02*
X47595238Y-36178571D01*
X47452381Y-36702381D02*
X47928572Y-36702381D01*
X47928572Y-35702381D01*
X47452381Y-35702381D01*
X47166667Y-35702381D02*
X46595238Y-35702381D01*
X46880953Y-36702381D02*
X46880953Y-35702381D01*
D14*
X44380000Y-28520000D02*
X59620000Y-28520000D01*
X59620000Y-28520000D02*
X59620000Y-25980000D01*
X59620000Y-25980000D02*
X44380000Y-25980000D01*
X44380000Y-25980000D02*
X44380000Y-28520000D01*
D15*
G36*
X56646610Y-40279412D02*
X56636503Y-40280643D01*
X56622587Y-40282564D01*
X56605511Y-40285068D01*
X56585925Y-40288051D01*
X56564476Y-40291404D01*
X56541814Y-40295022D01*
X56518588Y-40298799D01*
X56495446Y-40302628D01*
X56473038Y-40306402D01*
X56452012Y-40310016D01*
X56433018Y-40313363D01*
X56416704Y-40316336D01*
X56403718Y-40318830D01*
X56394711Y-40320737D01*
X56390467Y-40321894D01*
X56375988Y-40330426D01*
X56364840Y-40342641D01*
X56357548Y-40357733D01*
X56354635Y-40374900D01*
X56354605Y-40376900D01*
X56356944Y-40394440D01*
X56363589Y-40409554D01*
X56373978Y-40421669D01*
X56387550Y-40430212D01*
X56403743Y-40434609D01*
X56411560Y-40435083D01*
X56418151Y-40434645D01*
X56429087Y-40433412D01*
X56443501Y-40431504D01*
X56460526Y-40429041D01*
X56479295Y-40426144D01*
X56497480Y-40423177D01*
X56516212Y-40420047D01*
X56533192Y-40417225D01*
X56547732Y-40414824D01*
X56559148Y-40412956D01*
X56566753Y-40411734D01*
X56569861Y-40411272D01*
X56569887Y-40411270D01*
X56569743Y-40413503D01*
X56567713Y-40419582D01*
X56564196Y-40428582D01*
X56559590Y-40439576D01*
X56554293Y-40451638D01*
X56548703Y-40463841D01*
X56543218Y-40475259D01*
X56538236Y-40484966D01*
X56538134Y-40485156D01*
X56513716Y-40526017D01*
X56484977Y-40566026D01*
X56451791Y-40605296D01*
X56414032Y-40643944D01*
X56371575Y-40682082D01*
X56324294Y-40719826D01*
X56272065Y-40757290D01*
X56214762Y-40794589D01*
X56169396Y-40821929D01*
X56155475Y-40830029D01*
X56142172Y-40837678D01*
X56129075Y-40845091D01*
X56115771Y-40852484D01*
X56101847Y-40860072D01*
X56086892Y-40868070D01*
X56070490Y-40876695D01*
X56052231Y-40886162D01*
X56031702Y-40896685D01*
X56008489Y-40908481D01*
X55982180Y-40921765D01*
X55952361Y-40936753D01*
X55918622Y-40953659D01*
X55881000Y-40972473D01*
X55836295Y-40994862D01*
X55796006Y-41015151D01*
X55759783Y-41033537D01*
X55727275Y-41050216D01*
X55698130Y-41065385D01*
X55671999Y-41079242D01*
X55648529Y-41091981D01*
X55627372Y-41103801D01*
X55608174Y-41114897D01*
X55590586Y-41125467D01*
X55574257Y-41135706D01*
X55558836Y-41145812D01*
X55543971Y-41155981D01*
X55529313Y-41166410D01*
X55514510Y-41177295D01*
X55511527Y-41179525D01*
X55475893Y-41207686D01*
X55445006Y-41235327D01*
X55418422Y-41262950D01*
X55395698Y-41291059D01*
X55376389Y-41320156D01*
X55360050Y-41350744D01*
X55359682Y-41351520D01*
X55345281Y-41387502D01*
X55335830Y-41424219D01*
X55331346Y-41461725D01*
X55331847Y-41500076D01*
X55337347Y-41539325D01*
X55347864Y-41579527D01*
X55363413Y-41620738D01*
X55384012Y-41663011D01*
X55409677Y-41706403D01*
X55440423Y-41750966D01*
X55476267Y-41796757D01*
X55501944Y-41826791D01*
X55540827Y-41868958D01*
X55584612Y-41912864D01*
X55633223Y-41958450D01*
X55686585Y-42005654D01*
X55744624Y-42054415D01*
X55807265Y-42104672D01*
X55874432Y-42156365D01*
X55946052Y-42209433D01*
X56022049Y-42263814D01*
X56102348Y-42319448D01*
X56131017Y-42338909D01*
X56151404Y-42352618D01*
X56172587Y-42366757D01*
X56194028Y-42380973D01*
X56215188Y-42394918D01*
X56235529Y-42408239D01*
X56254512Y-42420586D01*
X56271598Y-42431607D01*
X56286249Y-42440953D01*
X56297925Y-42448273D01*
X56306089Y-42453215D01*
X56309199Y-42454956D01*
X56318305Y-42457751D01*
X56330248Y-42458950D01*
X56342822Y-42458562D01*
X56353821Y-42456596D01*
X56358573Y-42454756D01*
X56373626Y-42444230D01*
X56384207Y-42430926D01*
X56390210Y-42415017D01*
X56391646Y-42400937D01*
X56389579Y-42383609D01*
X56383201Y-42369051D01*
X56374029Y-42358220D01*
X56369798Y-42354898D01*
X56361800Y-42349187D01*
X56350725Y-42341558D01*
X56337259Y-42332478D01*
X56322090Y-42322418D01*
X56308303Y-42313401D01*
X56218302Y-42254094D01*
X56133248Y-42196346D01*
X56053146Y-42140163D01*
X55978002Y-42085548D01*
X55907821Y-42032508D01*
X55842609Y-41981046D01*
X55782370Y-41931169D01*
X55727111Y-41882881D01*
X55676837Y-41836187D01*
X55631552Y-41791091D01*
X55591264Y-41747600D01*
X55555976Y-41705718D01*
X55525695Y-41665450D01*
X55500425Y-41626800D01*
X55480173Y-41589775D01*
X55464943Y-41554378D01*
X55457061Y-41529795D01*
X55452609Y-41506899D01*
X55450857Y-41482173D01*
X55451784Y-41457430D01*
X55455365Y-41434480D01*
X55458450Y-41423302D01*
X55469630Y-41396895D01*
X55485804Y-41370330D01*
X55507017Y-41343558D01*
X55533316Y-41316533D01*
X55564747Y-41289207D01*
X55601356Y-41261532D01*
X55643190Y-41233461D01*
X55644716Y-41232492D01*
X55658989Y-41223574D01*
X55673679Y-41214678D01*
X55689183Y-41205593D01*
X55705895Y-41196111D01*
X55724212Y-41186021D01*
X55744528Y-41175114D01*
X55767240Y-41163178D01*
X55792743Y-41150005D01*
X55821431Y-41135384D01*
X55853702Y-41119105D01*
X55889949Y-41100959D01*
X55930569Y-41080736D01*
X55930882Y-41080580D01*
X55977782Y-41057217D01*
X56020291Y-41035898D01*
X56058800Y-41016409D01*
X56093702Y-40998536D01*
X56125391Y-40982064D01*
X56154259Y-40966780D01*
X56180700Y-40952470D01*
X56205106Y-40938918D01*
X56227872Y-40925912D01*
X56249388Y-40913236D01*
X56270050Y-40900678D01*
X56290249Y-40888022D01*
X56310379Y-40875055D01*
X56321532Y-40867733D01*
X56382425Y-40825274D01*
X56438150Y-40781737D01*
X56488727Y-40737103D01*
X56534174Y-40691349D01*
X56574507Y-40644455D01*
X56609747Y-40596400D01*
X56639910Y-40547164D01*
X56665015Y-40496724D01*
X56682595Y-40452307D01*
X56691222Y-40425868D01*
X56698224Y-40400670D01*
X56703506Y-40377301D01*
X56706971Y-40356347D01*
X56708524Y-40338396D01*
X56708070Y-40324036D01*
X56705513Y-40313854D01*
X56705231Y-40313269D01*
X56694941Y-40297949D01*
X56681911Y-40286997D01*
X56666473Y-40280629D01*
X56652259Y-40278979D01*
X56646610Y-40279412D01*
X56646610Y-40279412D01*
G37*
X56646610Y-40279412D02*
X56636503Y-40280643D01*
X56622587Y-40282564D01*
X56605511Y-40285068D01*
X56585925Y-40288051D01*
X56564476Y-40291404D01*
X56541814Y-40295022D01*
X56518588Y-40298799D01*
X56495446Y-40302628D01*
X56473038Y-40306402D01*
X56452012Y-40310016D01*
X56433018Y-40313363D01*
X56416704Y-40316336D01*
X56403718Y-40318830D01*
X56394711Y-40320737D01*
X56390467Y-40321894D01*
X56375988Y-40330426D01*
X56364840Y-40342641D01*
X56357548Y-40357733D01*
X56354635Y-40374900D01*
X56354605Y-40376900D01*
X56356944Y-40394440D01*
X56363589Y-40409554D01*
X56373978Y-40421669D01*
X56387550Y-40430212D01*
X56403743Y-40434609D01*
X56411560Y-40435083D01*
X56418151Y-40434645D01*
X56429087Y-40433412D01*
X56443501Y-40431504D01*
X56460526Y-40429041D01*
X56479295Y-40426144D01*
X56497480Y-40423177D01*
X56516212Y-40420047D01*
X56533192Y-40417225D01*
X56547732Y-40414824D01*
X56559148Y-40412956D01*
X56566753Y-40411734D01*
X56569861Y-40411272D01*
X56569887Y-40411270D01*
X56569743Y-40413503D01*
X56567713Y-40419582D01*
X56564196Y-40428582D01*
X56559590Y-40439576D01*
X56554293Y-40451638D01*
X56548703Y-40463841D01*
X56543218Y-40475259D01*
X56538236Y-40484966D01*
X56538134Y-40485156D01*
X56513716Y-40526017D01*
X56484977Y-40566026D01*
X56451791Y-40605296D01*
X56414032Y-40643944D01*
X56371575Y-40682082D01*
X56324294Y-40719826D01*
X56272065Y-40757290D01*
X56214762Y-40794589D01*
X56169396Y-40821929D01*
X56155475Y-40830029D01*
X56142172Y-40837678D01*
X56129075Y-40845091D01*
X56115771Y-40852484D01*
X56101847Y-40860072D01*
X56086892Y-40868070D01*
X56070490Y-40876695D01*
X56052231Y-40886162D01*
X56031702Y-40896685D01*
X56008489Y-40908481D01*
X55982180Y-40921765D01*
X55952361Y-40936753D01*
X55918622Y-40953659D01*
X55881000Y-40972473D01*
X55836295Y-40994862D01*
X55796006Y-41015151D01*
X55759783Y-41033537D01*
X55727275Y-41050216D01*
X55698130Y-41065385D01*
X55671999Y-41079242D01*
X55648529Y-41091981D01*
X55627372Y-41103801D01*
X55608174Y-41114897D01*
X55590586Y-41125467D01*
X55574257Y-41135706D01*
X55558836Y-41145812D01*
X55543971Y-41155981D01*
X55529313Y-41166410D01*
X55514510Y-41177295D01*
X55511527Y-41179525D01*
X55475893Y-41207686D01*
X55445006Y-41235327D01*
X55418422Y-41262950D01*
X55395698Y-41291059D01*
X55376389Y-41320156D01*
X55360050Y-41350744D01*
X55359682Y-41351520D01*
X55345281Y-41387502D01*
X55335830Y-41424219D01*
X55331346Y-41461725D01*
X55331847Y-41500076D01*
X55337347Y-41539325D01*
X55347864Y-41579527D01*
X55363413Y-41620738D01*
X55384012Y-41663011D01*
X55409677Y-41706403D01*
X55440423Y-41750966D01*
X55476267Y-41796757D01*
X55501944Y-41826791D01*
X55540827Y-41868958D01*
X55584612Y-41912864D01*
X55633223Y-41958450D01*
X55686585Y-42005654D01*
X55744624Y-42054415D01*
X55807265Y-42104672D01*
X55874432Y-42156365D01*
X55946052Y-42209433D01*
X56022049Y-42263814D01*
X56102348Y-42319448D01*
X56131017Y-42338909D01*
X56151404Y-42352618D01*
X56172587Y-42366757D01*
X56194028Y-42380973D01*
X56215188Y-42394918D01*
X56235529Y-42408239D01*
X56254512Y-42420586D01*
X56271598Y-42431607D01*
X56286249Y-42440953D01*
X56297925Y-42448273D01*
X56306089Y-42453215D01*
X56309199Y-42454956D01*
X56318305Y-42457751D01*
X56330248Y-42458950D01*
X56342822Y-42458562D01*
X56353821Y-42456596D01*
X56358573Y-42454756D01*
X56373626Y-42444230D01*
X56384207Y-42430926D01*
X56390210Y-42415017D01*
X56391646Y-42400937D01*
X56389579Y-42383609D01*
X56383201Y-42369051D01*
X56374029Y-42358220D01*
X56369798Y-42354898D01*
X56361800Y-42349187D01*
X56350725Y-42341558D01*
X56337259Y-42332478D01*
X56322090Y-42322418D01*
X56308303Y-42313401D01*
X56218302Y-42254094D01*
X56133248Y-42196346D01*
X56053146Y-42140163D01*
X55978002Y-42085548D01*
X55907821Y-42032508D01*
X55842609Y-41981046D01*
X55782370Y-41931169D01*
X55727111Y-41882881D01*
X55676837Y-41836187D01*
X55631552Y-41791091D01*
X55591264Y-41747600D01*
X55555976Y-41705718D01*
X55525695Y-41665450D01*
X55500425Y-41626800D01*
X55480173Y-41589775D01*
X55464943Y-41554378D01*
X55457061Y-41529795D01*
X55452609Y-41506899D01*
X55450857Y-41482173D01*
X55451784Y-41457430D01*
X55455365Y-41434480D01*
X55458450Y-41423302D01*
X55469630Y-41396895D01*
X55485804Y-41370330D01*
X55507017Y-41343558D01*
X55533316Y-41316533D01*
X55564747Y-41289207D01*
X55601356Y-41261532D01*
X55643190Y-41233461D01*
X55644716Y-41232492D01*
X55658989Y-41223574D01*
X55673679Y-41214678D01*
X55689183Y-41205593D01*
X55705895Y-41196111D01*
X55724212Y-41186021D01*
X55744528Y-41175114D01*
X55767240Y-41163178D01*
X55792743Y-41150005D01*
X55821431Y-41135384D01*
X55853702Y-41119105D01*
X55889949Y-41100959D01*
X55930569Y-41080736D01*
X55930882Y-41080580D01*
X55977782Y-41057217D01*
X56020291Y-41035898D01*
X56058800Y-41016409D01*
X56093702Y-40998536D01*
X56125391Y-40982064D01*
X56154259Y-40966780D01*
X56180700Y-40952470D01*
X56205106Y-40938918D01*
X56227872Y-40925912D01*
X56249388Y-40913236D01*
X56270050Y-40900678D01*
X56290249Y-40888022D01*
X56310379Y-40875055D01*
X56321532Y-40867733D01*
X56382425Y-40825274D01*
X56438150Y-40781737D01*
X56488727Y-40737103D01*
X56534174Y-40691349D01*
X56574507Y-40644455D01*
X56609747Y-40596400D01*
X56639910Y-40547164D01*
X56665015Y-40496724D01*
X56682595Y-40452307D01*
X56691222Y-40425868D01*
X56698224Y-40400670D01*
X56703506Y-40377301D01*
X56706971Y-40356347D01*
X56708524Y-40338396D01*
X56708070Y-40324036D01*
X56705513Y-40313854D01*
X56705231Y-40313269D01*
X56694941Y-40297949D01*
X56681911Y-40286997D01*
X56666473Y-40280629D01*
X56652259Y-40278979D01*
X56646610Y-40279412D01*
G36*
X54452378Y-40915520D02*
X54439308Y-40920604D01*
X54427540Y-40929494D01*
X54423575Y-40933468D01*
X54420121Y-40937838D01*
X54416863Y-40943319D01*
X54413488Y-40950632D01*
X54409681Y-40960491D01*
X54405129Y-40973616D01*
X54399517Y-40990724D01*
X54396160Y-41001169D01*
X54372303Y-41078954D01*
X54351784Y-41152985D01*
X54334570Y-41223583D01*
X54320627Y-41291071D01*
X54309921Y-41355772D01*
X54302418Y-41418009D01*
X54298084Y-41478104D01*
X54296886Y-41536380D01*
X54298789Y-41593159D01*
X54303760Y-41648764D01*
X54311764Y-41703518D01*
X54318654Y-41739166D01*
X54335505Y-41805954D01*
X54357545Y-41871734D01*
X54384768Y-41936496D01*
X54417166Y-42000230D01*
X54454732Y-42062924D01*
X54497459Y-42124569D01*
X54545338Y-42185153D01*
X54598364Y-42244665D01*
X54656528Y-42303096D01*
X54719823Y-42360433D01*
X54773719Y-42405166D01*
X54792704Y-42420247D01*
X54808080Y-42432233D01*
X54820281Y-42441443D01*
X54829737Y-42448199D01*
X54836880Y-42452824D01*
X54840395Y-42454791D01*
X54849769Y-42457698D01*
X54861904Y-42458956D01*
X54874599Y-42458565D01*
X54885649Y-42456529D01*
X54890136Y-42454756D01*
X54905189Y-42444230D01*
X54915770Y-42430926D01*
X54921773Y-42415017D01*
X54923209Y-42400937D01*
X54922748Y-42390703D01*
X54921027Y-42381839D01*
X54917541Y-42373657D01*
X54911782Y-42365468D01*
X54903246Y-42356583D01*
X54891426Y-42346315D01*
X54875816Y-42333974D01*
X54871615Y-42330755D01*
X54819349Y-42288988D01*
X54768813Y-42244925D01*
X54720620Y-42199185D01*
X54675377Y-42152391D01*
X54633697Y-42105160D01*
X54596187Y-42058115D01*
X54575454Y-42029543D01*
X54538207Y-41972078D01*
X54505973Y-41913653D01*
X54478721Y-41854119D01*
X54456421Y-41793326D01*
X54439040Y-41731125D01*
X54426549Y-41667368D01*
X54418917Y-41601904D01*
X54416112Y-41534586D01*
X54418103Y-41465264D01*
X54424859Y-41393788D01*
X54432462Y-41342063D01*
X54441522Y-41293284D01*
X54452836Y-41241086D01*
X54466092Y-41186676D01*
X54480977Y-41131261D01*
X54497179Y-41076050D01*
X54514385Y-41022250D01*
X54518276Y-41010717D01*
X54524208Y-40989688D01*
X54526407Y-40971823D01*
X54524812Y-40956472D01*
X54519362Y-40942988D01*
X54510818Y-40931596D01*
X54498178Y-40921298D01*
X54483300Y-40915524D01*
X54468100Y-40913979D01*
X54452378Y-40915520D01*
X54452378Y-40915520D01*
G37*
X54452378Y-40915520D02*
X54439308Y-40920604D01*
X54427540Y-40929494D01*
X54423575Y-40933468D01*
X54420121Y-40937838D01*
X54416863Y-40943319D01*
X54413488Y-40950632D01*
X54409681Y-40960491D01*
X54405129Y-40973616D01*
X54399517Y-40990724D01*
X54396160Y-41001169D01*
X54372303Y-41078954D01*
X54351784Y-41152985D01*
X54334570Y-41223583D01*
X54320627Y-41291071D01*
X54309921Y-41355772D01*
X54302418Y-41418009D01*
X54298084Y-41478104D01*
X54296886Y-41536380D01*
X54298789Y-41593159D01*
X54303760Y-41648764D01*
X54311764Y-41703518D01*
X54318654Y-41739166D01*
X54335505Y-41805954D01*
X54357545Y-41871734D01*
X54384768Y-41936496D01*
X54417166Y-42000230D01*
X54454732Y-42062924D01*
X54497459Y-42124569D01*
X54545338Y-42185153D01*
X54598364Y-42244665D01*
X54656528Y-42303096D01*
X54719823Y-42360433D01*
X54773719Y-42405166D01*
X54792704Y-42420247D01*
X54808080Y-42432233D01*
X54820281Y-42441443D01*
X54829737Y-42448199D01*
X54836880Y-42452824D01*
X54840395Y-42454791D01*
X54849769Y-42457698D01*
X54861904Y-42458956D01*
X54874599Y-42458565D01*
X54885649Y-42456529D01*
X54890136Y-42454756D01*
X54905189Y-42444230D01*
X54915770Y-42430926D01*
X54921773Y-42415017D01*
X54923209Y-42400937D01*
X54922748Y-42390703D01*
X54921027Y-42381839D01*
X54917541Y-42373657D01*
X54911782Y-42365468D01*
X54903246Y-42356583D01*
X54891426Y-42346315D01*
X54875816Y-42333974D01*
X54871615Y-42330755D01*
X54819349Y-42288988D01*
X54768813Y-42244925D01*
X54720620Y-42199185D01*
X54675377Y-42152391D01*
X54633697Y-42105160D01*
X54596187Y-42058115D01*
X54575454Y-42029543D01*
X54538207Y-41972078D01*
X54505973Y-41913653D01*
X54478721Y-41854119D01*
X54456421Y-41793326D01*
X54439040Y-41731125D01*
X54426549Y-41667368D01*
X54418917Y-41601904D01*
X54416112Y-41534586D01*
X54418103Y-41465264D01*
X54424859Y-41393788D01*
X54432462Y-41342063D01*
X54441522Y-41293284D01*
X54452836Y-41241086D01*
X54466092Y-41186676D01*
X54480977Y-41131261D01*
X54497179Y-41076050D01*
X54514385Y-41022250D01*
X54518276Y-41010717D01*
X54524208Y-40989688D01*
X54526407Y-40971823D01*
X54524812Y-40956472D01*
X54519362Y-40942988D01*
X54510818Y-40931596D01*
X54498178Y-40921298D01*
X54483300Y-40915524D01*
X54468100Y-40913979D01*
X54452378Y-40915520D01*
G36*
X54576834Y-40349886D02*
X54555389Y-40351952D01*
X54535692Y-40355782D01*
X54516030Y-40361706D01*
X54495765Y-40369597D01*
X54462540Y-40386311D01*
X54431233Y-40407333D01*
X54402189Y-40432125D01*
X54375758Y-40460150D01*
X54352286Y-40490872D01*
X54332122Y-40523752D01*
X54315611Y-40558253D01*
X54303103Y-40593839D01*
X54294944Y-40629972D01*
X54291482Y-40666114D01*
X54291671Y-40685114D01*
X54293418Y-40707224D01*
X54296605Y-40726043D01*
X54301705Y-40743486D01*
X54309190Y-40761463D01*
X54311916Y-40767135D01*
X54327359Y-40793213D01*
X54346210Y-40815481D01*
X54368681Y-40834112D01*
X54394989Y-40849279D01*
X54425346Y-40861156D01*
X54429859Y-40862545D01*
X54443890Y-40865948D01*
X54459957Y-40868582D01*
X54476922Y-40870394D01*
X54493643Y-40871328D01*
X54508982Y-40871330D01*
X54521798Y-40870347D01*
X54530951Y-40868325D01*
X54532948Y-40867434D01*
X54548177Y-40856545D01*
X54558747Y-40843148D01*
X54564654Y-40827253D01*
X54566021Y-40813411D01*
X54564481Y-40797693D01*
X54559398Y-40784622D01*
X54550506Y-40772846D01*
X54542752Y-40765785D01*
X54533842Y-40760608D01*
X54522655Y-40756905D01*
X54508068Y-40754268D01*
X54495738Y-40752886D01*
X54475994Y-40750519D01*
X54460508Y-40747389D01*
X54448263Y-40743144D01*
X54438240Y-40737429D01*
X54429453Y-40729925D01*
X54419333Y-40716200D01*
X54413013Y-40699571D01*
X54410285Y-40680589D01*
X54410940Y-40659807D01*
X54414772Y-40637776D01*
X54421573Y-40615047D01*
X54431135Y-40592173D01*
X54443250Y-40569706D01*
X54457711Y-40548196D01*
X54474309Y-40528197D01*
X54492838Y-40510259D01*
X54513090Y-40494934D01*
X54519401Y-40490970D01*
X54545772Y-40477760D01*
X54572201Y-40469728D01*
X54598761Y-40466886D01*
X54625523Y-40469248D01*
X54652560Y-40476825D01*
X54679946Y-40489630D01*
X54707752Y-40507674D01*
X54731482Y-40526886D01*
X54744078Y-40537659D01*
X54754054Y-40545206D01*
X54762498Y-40550076D01*
X54770498Y-40552818D01*
X54779143Y-40553978D01*
X54785600Y-40554145D01*
X54803383Y-40551803D01*
X54818560Y-40545114D01*
X54830622Y-40534584D01*
X54839063Y-40520721D01*
X54843375Y-40504032D01*
X54843834Y-40495963D01*
X54843118Y-40484652D01*
X54840578Y-40474787D01*
X54835630Y-40465333D01*
X54827686Y-40455259D01*
X54816161Y-40443531D01*
X54811714Y-40439346D01*
X54779340Y-40412380D01*
X54744896Y-40389561D01*
X54709017Y-40371254D01*
X54672341Y-40357826D01*
X54667733Y-40356509D01*
X54656529Y-40353567D01*
X54646872Y-40351536D01*
X54637282Y-40350254D01*
X54626277Y-40349558D01*
X54612377Y-40349285D01*
X54601740Y-40349257D01*
X54576834Y-40349886D01*
X54576834Y-40349886D01*
G37*
X54576834Y-40349886D02*
X54555389Y-40351952D01*
X54535692Y-40355782D01*
X54516030Y-40361706D01*
X54495765Y-40369597D01*
X54462540Y-40386311D01*
X54431233Y-40407333D01*
X54402189Y-40432125D01*
X54375758Y-40460150D01*
X54352286Y-40490872D01*
X54332122Y-40523752D01*
X54315611Y-40558253D01*
X54303103Y-40593839D01*
X54294944Y-40629972D01*
X54291482Y-40666114D01*
X54291671Y-40685114D01*
X54293418Y-40707224D01*
X54296605Y-40726043D01*
X54301705Y-40743486D01*
X54309190Y-40761463D01*
X54311916Y-40767135D01*
X54327359Y-40793213D01*
X54346210Y-40815481D01*
X54368681Y-40834112D01*
X54394989Y-40849279D01*
X54425346Y-40861156D01*
X54429859Y-40862545D01*
X54443890Y-40865948D01*
X54459957Y-40868582D01*
X54476922Y-40870394D01*
X54493643Y-40871328D01*
X54508982Y-40871330D01*
X54521798Y-40870347D01*
X54530951Y-40868325D01*
X54532948Y-40867434D01*
X54548177Y-40856545D01*
X54558747Y-40843148D01*
X54564654Y-40827253D01*
X54566021Y-40813411D01*
X54564481Y-40797693D01*
X54559398Y-40784622D01*
X54550506Y-40772846D01*
X54542752Y-40765785D01*
X54533842Y-40760608D01*
X54522655Y-40756905D01*
X54508068Y-40754268D01*
X54495738Y-40752886D01*
X54475994Y-40750519D01*
X54460508Y-40747389D01*
X54448263Y-40743144D01*
X54438240Y-40737429D01*
X54429453Y-40729925D01*
X54419333Y-40716200D01*
X54413013Y-40699571D01*
X54410285Y-40680589D01*
X54410940Y-40659807D01*
X54414772Y-40637776D01*
X54421573Y-40615047D01*
X54431135Y-40592173D01*
X54443250Y-40569706D01*
X54457711Y-40548196D01*
X54474309Y-40528197D01*
X54492838Y-40510259D01*
X54513090Y-40494934D01*
X54519401Y-40490970D01*
X54545772Y-40477760D01*
X54572201Y-40469728D01*
X54598761Y-40466886D01*
X54625523Y-40469248D01*
X54652560Y-40476825D01*
X54679946Y-40489630D01*
X54707752Y-40507674D01*
X54731482Y-40526886D01*
X54744078Y-40537659D01*
X54754054Y-40545206D01*
X54762498Y-40550076D01*
X54770498Y-40552818D01*
X54779143Y-40553978D01*
X54785600Y-40554145D01*
X54803383Y-40551803D01*
X54818560Y-40545114D01*
X54830622Y-40534584D01*
X54839063Y-40520721D01*
X54843375Y-40504032D01*
X54843834Y-40495963D01*
X54843118Y-40484652D01*
X54840578Y-40474787D01*
X54835630Y-40465333D01*
X54827686Y-40455259D01*
X54816161Y-40443531D01*
X54811714Y-40439346D01*
X54779340Y-40412380D01*
X54744896Y-40389561D01*
X54709017Y-40371254D01*
X54672341Y-40357826D01*
X54667733Y-40356509D01*
X54656529Y-40353567D01*
X54646872Y-40351536D01*
X54637282Y-40350254D01*
X54626277Y-40349558D01*
X54612377Y-40349285D01*
X54601740Y-40349257D01*
X54576834Y-40349886D01*
G36*
X55616250Y-40044824D02*
X55590953Y-40045056D01*
X55567034Y-40045468D01*
X55545329Y-40046059D01*
X55526669Y-40046828D01*
X55511889Y-40047777D01*
X55506615Y-40048274D01*
X55431289Y-40058275D01*
X55359607Y-40071491D01*
X55291689Y-40087885D01*
X55227654Y-40107422D01*
X55167622Y-40130063D01*
X55111712Y-40155774D01*
X55060043Y-40184518D01*
X55059489Y-40184857D01*
X55025001Y-40207792D01*
X54992287Y-40233124D01*
X54961965Y-40260234D01*
X54934654Y-40288504D01*
X54910972Y-40317317D01*
X54891536Y-40346054D01*
X54883183Y-40361016D01*
X54878863Y-40369852D01*
X54876245Y-40377042D01*
X54874920Y-40384502D01*
X54874481Y-40394152D01*
X54874475Y-40402010D01*
X54875013Y-40416686D01*
X54876643Y-40428213D01*
X54879692Y-40438681D01*
X54880636Y-40441178D01*
X54892976Y-40465929D01*
X54909999Y-40489887D01*
X54931110Y-40512630D01*
X54955713Y-40533739D01*
X54983213Y-40552792D01*
X55013014Y-40569368D01*
X55044521Y-40583046D01*
X55077139Y-40593406D01*
X55104004Y-40599082D01*
X55117663Y-40600588D01*
X55134274Y-40601350D01*
X55152132Y-40601393D01*
X55169534Y-40600739D01*
X55184774Y-40599411D01*
X55194407Y-40597849D01*
X55224747Y-40588761D01*
X55252750Y-40575257D01*
X55279134Y-40556970D01*
X55285951Y-40551271D01*
X55301569Y-40537742D01*
X55284032Y-40518824D01*
X55266495Y-40499081D01*
X55252401Y-40481254D01*
X55240889Y-40464186D01*
X55233059Y-40450492D01*
X55224256Y-40432693D01*
X55218325Y-40417328D01*
X55214799Y-40402720D01*
X55213215Y-40387194D01*
X55213005Y-40378142D01*
X55213152Y-40366021D01*
X55213958Y-40357218D01*
X55215830Y-40349765D01*
X55219174Y-40341693D01*
X55221552Y-40336755D01*
X55233231Y-40318264D01*
X55248353Y-40303612D01*
X55266850Y-40292565D01*
X55273945Y-40289479D01*
X55280428Y-40287463D01*
X55287739Y-40286298D01*
X55297318Y-40285764D01*
X55310606Y-40285640D01*
X55312146Y-40285642D01*
X55331581Y-40286305D01*
X55347704Y-40288560D01*
X55362383Y-40292904D01*
X55377485Y-40299836D01*
X55388583Y-40306068D01*
X55405689Y-40318188D01*
X55423278Y-40334278D01*
X55440378Y-40353217D01*
X55456015Y-40373889D01*
X55469216Y-40395175D01*
X55473744Y-40403915D01*
X55479734Y-40416245D01*
X55498466Y-40405701D01*
X55544355Y-40381317D01*
X55590772Y-40359426D01*
X55636384Y-40340623D01*
X55672753Y-40327765D01*
X55684832Y-40324061D01*
X55699339Y-40319944D01*
X55715281Y-40315661D01*
X55731663Y-40311458D01*
X55747493Y-40307579D01*
X55761776Y-40304272D01*
X55773518Y-40301783D01*
X55781727Y-40300357D01*
X55784428Y-40300115D01*
X55792015Y-40298850D01*
X55794877Y-40295294D01*
X55792958Y-40289522D01*
X55792745Y-40289190D01*
X55785398Y-40274336D01*
X55781256Y-40257950D01*
X55780482Y-40241562D01*
X55783237Y-40226705D01*
X55785557Y-40221150D01*
X55794028Y-40210063D01*
X55806273Y-40201462D01*
X55821190Y-40195779D01*
X55837674Y-40193448D01*
X55853127Y-40194608D01*
X55874076Y-40201036D01*
X55892452Y-40211983D01*
X55908063Y-40227242D01*
X55920712Y-40246606D01*
X55930208Y-40269869D01*
X55933026Y-40279999D01*
X55937501Y-40298218D01*
X55964684Y-40296461D01*
X55991771Y-40293443D01*
X56016225Y-40288180D01*
X56037485Y-40280882D01*
X56054993Y-40271763D01*
X56068190Y-40261032D01*
X56072701Y-40255553D01*
X56079692Y-40241257D01*
X56082042Y-40225242D01*
X56079933Y-40207971D01*
X56073549Y-40189903D01*
X56063072Y-40171501D01*
X56048682Y-40153224D01*
X56030563Y-40135535D01*
X56022733Y-40129059D01*
X56000942Y-40113904D01*
X55975698Y-40100253D01*
X55946732Y-40088026D01*
X55913776Y-40077137D01*
X55876562Y-40067505D01*
X55834822Y-40059046D01*
X55788287Y-40051676D01*
X55761938Y-40048227D01*
X55750323Y-40047201D01*
X55734254Y-40046355D01*
X55714562Y-40045689D01*
X55692083Y-40045203D01*
X55667649Y-40044897D01*
X55642093Y-40044771D01*
X55616250Y-40044824D01*
X55616250Y-40044824D01*
G37*
X55616250Y-40044824D02*
X55590953Y-40045056D01*
X55567034Y-40045468D01*
X55545329Y-40046059D01*
X55526669Y-40046828D01*
X55511889Y-40047777D01*
X55506615Y-40048274D01*
X55431289Y-40058275D01*
X55359607Y-40071491D01*
X55291689Y-40087885D01*
X55227654Y-40107422D01*
X55167622Y-40130063D01*
X55111712Y-40155774D01*
X55060043Y-40184518D01*
X55059489Y-40184857D01*
X55025001Y-40207792D01*
X54992287Y-40233124D01*
X54961965Y-40260234D01*
X54934654Y-40288504D01*
X54910972Y-40317317D01*
X54891536Y-40346054D01*
X54883183Y-40361016D01*
X54878863Y-40369852D01*
X54876245Y-40377042D01*
X54874920Y-40384502D01*
X54874481Y-40394152D01*
X54874475Y-40402010D01*
X54875013Y-40416686D01*
X54876643Y-40428213D01*
X54879692Y-40438681D01*
X54880636Y-40441178D01*
X54892976Y-40465929D01*
X54909999Y-40489887D01*
X54931110Y-40512630D01*
X54955713Y-40533739D01*
X54983213Y-40552792D01*
X55013014Y-40569368D01*
X55044521Y-40583046D01*
X55077139Y-40593406D01*
X55104004Y-40599082D01*
X55117663Y-40600588D01*
X55134274Y-40601350D01*
X55152132Y-40601393D01*
X55169534Y-40600739D01*
X55184774Y-40599411D01*
X55194407Y-40597849D01*
X55224747Y-40588761D01*
X55252750Y-40575257D01*
X55279134Y-40556970D01*
X55285951Y-40551271D01*
X55301569Y-40537742D01*
X55284032Y-40518824D01*
X55266495Y-40499081D01*
X55252401Y-40481254D01*
X55240889Y-40464186D01*
X55233059Y-40450492D01*
X55224256Y-40432693D01*
X55218325Y-40417328D01*
X55214799Y-40402720D01*
X55213215Y-40387194D01*
X55213005Y-40378142D01*
X55213152Y-40366021D01*
X55213958Y-40357218D01*
X55215830Y-40349765D01*
X55219174Y-40341693D01*
X55221552Y-40336755D01*
X55233231Y-40318264D01*
X55248353Y-40303612D01*
X55266850Y-40292565D01*
X55273945Y-40289479D01*
X55280428Y-40287463D01*
X55287739Y-40286298D01*
X55297318Y-40285764D01*
X55310606Y-40285640D01*
X55312146Y-40285642D01*
X55331581Y-40286305D01*
X55347704Y-40288560D01*
X55362383Y-40292904D01*
X55377485Y-40299836D01*
X55388583Y-40306068D01*
X55405689Y-40318188D01*
X55423278Y-40334278D01*
X55440378Y-40353217D01*
X55456015Y-40373889D01*
X55469216Y-40395175D01*
X55473744Y-40403915D01*
X55479734Y-40416245D01*
X55498466Y-40405701D01*
X55544355Y-40381317D01*
X55590772Y-40359426D01*
X55636384Y-40340623D01*
X55672753Y-40327765D01*
X55684832Y-40324061D01*
X55699339Y-40319944D01*
X55715281Y-40315661D01*
X55731663Y-40311458D01*
X55747493Y-40307579D01*
X55761776Y-40304272D01*
X55773518Y-40301783D01*
X55781727Y-40300357D01*
X55784428Y-40300115D01*
X55792015Y-40298850D01*
X55794877Y-40295294D01*
X55792958Y-40289522D01*
X55792745Y-40289190D01*
X55785398Y-40274336D01*
X55781256Y-40257950D01*
X55780482Y-40241562D01*
X55783237Y-40226705D01*
X55785557Y-40221150D01*
X55794028Y-40210063D01*
X55806273Y-40201462D01*
X55821190Y-40195779D01*
X55837674Y-40193448D01*
X55853127Y-40194608D01*
X55874076Y-40201036D01*
X55892452Y-40211983D01*
X55908063Y-40227242D01*
X55920712Y-40246606D01*
X55930208Y-40269869D01*
X55933026Y-40279999D01*
X55937501Y-40298218D01*
X55964684Y-40296461D01*
X55991771Y-40293443D01*
X56016225Y-40288180D01*
X56037485Y-40280882D01*
X56054993Y-40271763D01*
X56068190Y-40261032D01*
X56072701Y-40255553D01*
X56079692Y-40241257D01*
X56082042Y-40225242D01*
X56079933Y-40207971D01*
X56073549Y-40189903D01*
X56063072Y-40171501D01*
X56048682Y-40153224D01*
X56030563Y-40135535D01*
X56022733Y-40129059D01*
X56000942Y-40113904D01*
X55975698Y-40100253D01*
X55946732Y-40088026D01*
X55913776Y-40077137D01*
X55876562Y-40067505D01*
X55834822Y-40059046D01*
X55788287Y-40051676D01*
X55761938Y-40048227D01*
X55750323Y-40047201D01*
X55734254Y-40046355D01*
X55714562Y-40045689D01*
X55692083Y-40045203D01*
X55667649Y-40044897D01*
X55642093Y-40044771D01*
X55616250Y-40044824D01*
G36*
X58329397Y-39879048D02*
X58327748Y-39884084D01*
X58325010Y-39895326D01*
X58321334Y-39912036D01*
X58316870Y-39933475D01*
X58311772Y-39958904D01*
X58306190Y-39987584D01*
X58300275Y-40018776D01*
X58295602Y-40043972D01*
X58289613Y-40076504D01*
X58283964Y-40107029D01*
X58278794Y-40134820D01*
X58274239Y-40159149D01*
X58270435Y-40179289D01*
X58267520Y-40194510D01*
X58265629Y-40204087D01*
X58264954Y-40207170D01*
X58260690Y-40213127D01*
X58253194Y-40218525D01*
X58243880Y-40222950D01*
X58229710Y-40229177D01*
X58211637Y-40236828D01*
X58190616Y-40245527D01*
X58167599Y-40254894D01*
X58143539Y-40264552D01*
X58119390Y-40274122D01*
X58096106Y-40283228D01*
X58074639Y-40291490D01*
X58055942Y-40298531D01*
X58040970Y-40303973D01*
X58030674Y-40307438D01*
X58026135Y-40308555D01*
X58021780Y-40307326D01*
X58014055Y-40303495D01*
X58002618Y-40296841D01*
X57987127Y-40287146D01*
X57967239Y-40274191D01*
X57942611Y-40257758D01*
X57912902Y-40237627D01*
X57881578Y-40216197D01*
X57853910Y-40197290D01*
X57827800Y-40179616D01*
X57803865Y-40163582D01*
X57782724Y-40149594D01*
X57764995Y-40138058D01*
X57751296Y-40129380D01*
X57742246Y-40123967D01*
X57738651Y-40122233D01*
X57736046Y-40122460D01*
X57732292Y-40124235D01*
X57726959Y-40127951D01*
X57719620Y-40134003D01*
X57709844Y-40142787D01*
X57697203Y-40154695D01*
X57681269Y-40170124D01*
X57661612Y-40189466D01*
X57637803Y-40213116D01*
X57614183Y-40236700D01*
X57582883Y-40268147D01*
X57556629Y-40294843D01*
X57535339Y-40316877D01*
X57518927Y-40334341D01*
X57507308Y-40347323D01*
X57500398Y-40355916D01*
X57498112Y-40360207D01*
X57498112Y-40360208D01*
X57500058Y-40364568D01*
X57505630Y-40374108D01*
X57514430Y-40388214D01*
X57526057Y-40406271D01*
X57540112Y-40427665D01*
X57556197Y-40451783D01*
X57573911Y-40478008D01*
X57589787Y-40501260D01*
X57613515Y-40535984D01*
X57633328Y-40565299D01*
X57649431Y-40589525D01*
X57662026Y-40608980D01*
X57671319Y-40623985D01*
X57677513Y-40634857D01*
X57680812Y-40641918D01*
X57681509Y-40644845D01*
X57680143Y-40650448D01*
X57676285Y-40661556D01*
X57670330Y-40677235D01*
X57662675Y-40696553D01*
X57653715Y-40718577D01*
X57643847Y-40742374D01*
X57633465Y-40767011D01*
X57622965Y-40791554D01*
X57612744Y-40815072D01*
X57603197Y-40836632D01*
X57594720Y-40855300D01*
X57587708Y-40870143D01*
X57582559Y-40880229D01*
X57579856Y-40884454D01*
X57576362Y-40886393D01*
X57568978Y-40888834D01*
X57557264Y-40891871D01*
X57540783Y-40895598D01*
X57519095Y-40900111D01*
X57491762Y-40905504D01*
X57458345Y-40911872D01*
X57418650Y-40919264D01*
X57386226Y-40925328D01*
X57355748Y-40931175D01*
X57327959Y-40936652D01*
X57303602Y-40941605D01*
X57283422Y-40945881D01*
X57268162Y-40949327D01*
X57258565Y-40951790D01*
X57255577Y-40952871D01*
X57247639Y-40957829D01*
X57247639Y-41289115D01*
X57255577Y-41294210D01*
X57260642Y-41295912D01*
X57271896Y-41298706D01*
X57288585Y-41302436D01*
X57309953Y-41306944D01*
X57335246Y-41312073D01*
X57363708Y-41317666D01*
X57394586Y-41323567D01*
X57414616Y-41327311D01*
X57452836Y-41334446D01*
X57484640Y-41340506D01*
X57510565Y-41345610D01*
X57531150Y-41349876D01*
X57546933Y-41353423D01*
X57558450Y-41356368D01*
X57566240Y-41358831D01*
X57570842Y-41360929D01*
X57572222Y-41361984D01*
X57574978Y-41366717D01*
X57579897Y-41377128D01*
X57586614Y-41392308D01*
X57594761Y-41411348D01*
X57603972Y-41433340D01*
X57613880Y-41457375D01*
X57624120Y-41482544D01*
X57634324Y-41507938D01*
X57644126Y-41532649D01*
X57653159Y-41555769D01*
X57661058Y-41576388D01*
X57667455Y-41593598D01*
X57671984Y-41606490D01*
X57674279Y-41614155D01*
X57674489Y-41615545D01*
X57672541Y-41619863D01*
X57666974Y-41629348D01*
X57658195Y-41643374D01*
X57646611Y-41661316D01*
X57632630Y-41682546D01*
X57616658Y-41706439D01*
X57599105Y-41732370D01*
X57586295Y-41751104D01*
X57567886Y-41778081D01*
X57550779Y-41803461D01*
X57535382Y-41826616D01*
X57522103Y-41846920D01*
X57511348Y-41863744D01*
X57503526Y-41876461D01*
X57499044Y-41884445D01*
X57498112Y-41886864D01*
X57500562Y-41891085D01*
X57507509Y-41899568D01*
X57518342Y-41911704D01*
X57532453Y-41926885D01*
X57549232Y-41944502D01*
X57568070Y-41963946D01*
X57588359Y-41984608D01*
X57609488Y-42005881D01*
X57630850Y-42027156D01*
X57651835Y-42047823D01*
X57671833Y-42067274D01*
X57690236Y-42084901D01*
X57706435Y-42100095D01*
X57719820Y-42112247D01*
X57729783Y-42120749D01*
X57735714Y-42124992D01*
X57736790Y-42125361D01*
X57741204Y-42123417D01*
X57750779Y-42117860D01*
X57764877Y-42109100D01*
X57782864Y-42097549D01*
X57804105Y-42083618D01*
X57827963Y-42067717D01*
X57853804Y-42050259D01*
X57870400Y-42038930D01*
X57897116Y-42020725D01*
X57922212Y-42003825D01*
X57945056Y-41988639D01*
X57965017Y-41975578D01*
X57981464Y-41965053D01*
X57993766Y-41957474D01*
X58001292Y-41953252D01*
X58003279Y-41952500D01*
X58008459Y-41954113D01*
X58018686Y-41958594D01*
X58032832Y-41965399D01*
X58049765Y-41973987D01*
X58066328Y-41982725D01*
X58087188Y-41993631D01*
X58104933Y-42002319D01*
X58118728Y-42008411D01*
X58127739Y-42011526D01*
X58130387Y-42011829D01*
X58132066Y-42010969D01*
X58134222Y-42008557D01*
X58137033Y-42004193D01*
X58140673Y-41997481D01*
X58145320Y-41988020D01*
X58151148Y-41975414D01*
X58158334Y-41959263D01*
X58167053Y-41939169D01*
X58177483Y-41914735D01*
X58189798Y-41885561D01*
X58204175Y-41851249D01*
X58220790Y-41811402D01*
X58239818Y-41765620D01*
X58250104Y-41740833D01*
X58267289Y-41699315D01*
X58283673Y-41659558D01*
X58299056Y-41622058D01*
X58313236Y-41587315D01*
X58326014Y-41555826D01*
X58337187Y-41528087D01*
X58346555Y-41504599D01*
X58353918Y-41485857D01*
X58359073Y-41472360D01*
X58361821Y-41464606D01*
X58362234Y-41462977D01*
X58360450Y-41457031D01*
X58354150Y-41450441D01*
X58342745Y-41442411D01*
X58307502Y-41417996D01*
X58274806Y-41391681D01*
X58245846Y-41364542D01*
X58221809Y-41337655D01*
X58210837Y-41322957D01*
X58199558Y-41304418D01*
X58187770Y-41281398D01*
X58176550Y-41256292D01*
X58166977Y-41231492D01*
X58160727Y-41211666D01*
X58157476Y-41198583D01*
X58155206Y-41186236D01*
X58153754Y-41172868D01*
X58152954Y-41156723D01*
X58152641Y-41136044D01*
X58152615Y-41125236D01*
X58152767Y-41102077D01*
X58153332Y-41084214D01*
X58154476Y-41069893D01*
X58156364Y-41057358D01*
X58159161Y-41044853D01*
X58160751Y-41038805D01*
X58177053Y-40991423D01*
X58199374Y-40947557D01*
X58227937Y-40906811D01*
X58249337Y-40882461D01*
X58285042Y-40849914D01*
X58324209Y-40823165D01*
X58366175Y-40802293D01*
X58410275Y-40787373D01*
X58455846Y-40778482D01*
X58502223Y-40775696D01*
X58548742Y-40779093D01*
X58594738Y-40788748D01*
X58639549Y-40804739D01*
X58682508Y-40827141D01*
X58689722Y-40831684D01*
X58728430Y-40860886D01*
X58762773Y-40895427D01*
X58792266Y-40934755D01*
X58814143Y-40973541D01*
X58826128Y-40999675D01*
X58834960Y-41023044D01*
X58841062Y-41045610D01*
X58844857Y-41069332D01*
X58846766Y-41096170D01*
X58847217Y-41127000D01*
X58846986Y-41150741D01*
X58846366Y-41169090D01*
X58845203Y-41183703D01*
X58843347Y-41196240D01*
X58840645Y-41208359D01*
X58839302Y-41213430D01*
X58832443Y-41234421D01*
X58822858Y-41258341D01*
X58811667Y-41282752D01*
X58799989Y-41305211D01*
X58788942Y-41323279D01*
X58788931Y-41323296D01*
X58766303Y-41351792D01*
X58737476Y-41380790D01*
X58703206Y-41409608D01*
X58664248Y-41437563D01*
X58657869Y-41441755D01*
X58646046Y-41450173D01*
X58639677Y-41456796D01*
X58637764Y-41462680D01*
X58637766Y-41462943D01*
X58639121Y-41467370D01*
X58642993Y-41477809D01*
X58649182Y-41493764D01*
X58657488Y-41514736D01*
X58667708Y-41540227D01*
X58679642Y-41569740D01*
X58693090Y-41602776D01*
X58707849Y-41638839D01*
X58723720Y-41677430D01*
X58740501Y-41718052D01*
X58749944Y-41740833D01*
X58770297Y-41789832D01*
X58788150Y-41832695D01*
X58803675Y-41869816D01*
X58817047Y-41901587D01*
X58828440Y-41928402D01*
X58838025Y-41950655D01*
X58845978Y-41968739D01*
X58852472Y-41983047D01*
X58857679Y-41993972D01*
X58861774Y-42001908D01*
X58864931Y-42007248D01*
X58867322Y-42010385D01*
X58869121Y-42011713D01*
X58869498Y-42011808D01*
X58875207Y-42010534D01*
X58886072Y-42006186D01*
X58901129Y-41999205D01*
X58919416Y-41990029D01*
X58933309Y-41982704D01*
X58951780Y-41972983D01*
X58968485Y-41964562D01*
X58982288Y-41957983D01*
X58992058Y-41953788D01*
X58996443Y-41952500D01*
X59000919Y-41954438D01*
X59010449Y-41959940D01*
X59024296Y-41968533D01*
X59041725Y-41979748D01*
X59062001Y-41993114D01*
X59084389Y-42008159D01*
X59100031Y-42018826D01*
X59124798Y-42035807D01*
X59149105Y-42052464D01*
X59171972Y-42068125D01*
X59192420Y-42082121D01*
X59209468Y-42093779D01*
X59222138Y-42102430D01*
X59226286Y-42105256D01*
X59239545Y-42113795D01*
X59251354Y-42120533D01*
X59260087Y-42124585D01*
X59263268Y-42125361D01*
X59267571Y-42123067D01*
X59276190Y-42116133D01*
X59289213Y-42104475D01*
X59306728Y-42088012D01*
X59328822Y-42066660D01*
X59355583Y-42040337D01*
X59386295Y-42009766D01*
X59418083Y-41977819D01*
X59444743Y-41950681D01*
X59466292Y-41928334D01*
X59482749Y-41910758D01*
X59494131Y-41897935D01*
X59500455Y-41889847D01*
X59501889Y-41886865D01*
X59499944Y-41882504D01*
X59494378Y-41872978D01*
X59485600Y-41858913D01*
X59474018Y-41840937D01*
X59460037Y-41819677D01*
X59444067Y-41795760D01*
X59426514Y-41769814D01*
X59413726Y-41751105D01*
X59395321Y-41724134D01*
X59378218Y-41698768D01*
X59362822Y-41675634D01*
X59349542Y-41655358D01*
X59338785Y-41638566D01*
X59330958Y-41625883D01*
X59326470Y-41617938D01*
X59325532Y-41615545D01*
X59326844Y-41609806D01*
X59330560Y-41598541D01*
X59336309Y-41582658D01*
X59343723Y-41563063D01*
X59352431Y-41540663D01*
X59362065Y-41516366D01*
X59372256Y-41491080D01*
X59382633Y-41465710D01*
X59392828Y-41441164D01*
X59402472Y-41418350D01*
X59411195Y-41398175D01*
X59418627Y-41381545D01*
X59424400Y-41369368D01*
X59428145Y-41362552D01*
X59428912Y-41361596D01*
X59432205Y-41359571D01*
X59438147Y-41357302D01*
X59447300Y-41354664D01*
X59460228Y-41351535D01*
X59477491Y-41347790D01*
X59499652Y-41343305D01*
X59527272Y-41337956D01*
X59560915Y-41331621D01*
X59586610Y-41326853D01*
X59618478Y-41320886D01*
X59648397Y-41315129D01*
X59675611Y-41309739D01*
X59699359Y-41304873D01*
X59718885Y-41300689D01*
X59733428Y-41297343D01*
X59742232Y-41294994D01*
X59744424Y-41294141D01*
X59752362Y-41289115D01*
X59752362Y-41123822D01*
X59752339Y-41084910D01*
X59752259Y-41052460D01*
X59752103Y-41025880D01*
X59751851Y-41004575D01*
X59751485Y-40987954D01*
X59750984Y-40975424D01*
X59750331Y-40966390D01*
X59749507Y-40960261D01*
X59748491Y-40956443D01*
X59747265Y-40954343D01*
X59746902Y-40953999D01*
X59742395Y-40952436D01*
X59731668Y-40949767D01*
X59715443Y-40946141D01*
X59694441Y-40941709D01*
X59669387Y-40936619D01*
X59641000Y-40931023D01*
X59610005Y-40925069D01*
X59583964Y-40920177D01*
X59544092Y-40912703D01*
X59510711Y-40906310D01*
X59483358Y-40900898D01*
X59461570Y-40896365D01*
X59444881Y-40892611D01*
X59432830Y-40889535D01*
X59424951Y-40887037D01*
X59420781Y-40885014D01*
X59420281Y-40884589D01*
X59417107Y-40879520D01*
X59411719Y-40868862D01*
X59404512Y-40853547D01*
X59395883Y-40834509D01*
X59386227Y-40812680D01*
X59375942Y-40788994D01*
X59365422Y-40764383D01*
X59355065Y-40739781D01*
X59345266Y-40716120D01*
X59336421Y-40694335D01*
X59328928Y-40675357D01*
X59323180Y-40660119D01*
X59319576Y-40649556D01*
X59318492Y-40644845D01*
X59319810Y-40640361D01*
X59323874Y-40632297D01*
X59330889Y-40620335D01*
X59341058Y-40604154D01*
X59354584Y-40583436D01*
X59371674Y-40557861D01*
X59392529Y-40527110D01*
X59410214Y-40501260D01*
X59428990Y-40473736D01*
X59446473Y-40447803D01*
X59462263Y-40424077D01*
X59475960Y-40403170D01*
X59487165Y-40385698D01*
X59495480Y-40372276D01*
X59500504Y-40363516D01*
X59501889Y-40360208D01*
X59499440Y-40355984D01*
X59492497Y-40347496D01*
X59481669Y-40335352D01*
X59467565Y-40320162D01*
X59450795Y-40302536D01*
X59431966Y-40283080D01*
X59411688Y-40262406D01*
X59390569Y-40241122D01*
X59369218Y-40219836D01*
X59348244Y-40199157D01*
X59328256Y-40179696D01*
X59309862Y-40162060D01*
X59293672Y-40146858D01*
X59280294Y-40134701D01*
X59270337Y-40126195D01*
X59264409Y-40121951D01*
X59263334Y-40121583D01*
X59259003Y-40123530D01*
X59249484Y-40129106D01*
X59235386Y-40137918D01*
X59217314Y-40149568D01*
X59195877Y-40163663D01*
X59171681Y-40179806D01*
X59145334Y-40197602D01*
X59119754Y-40215069D01*
X59084898Y-40238900D01*
X59055442Y-40258832D01*
X59031049Y-40275081D01*
X59011385Y-40287859D01*
X58996116Y-40297380D01*
X58984908Y-40303860D01*
X58977424Y-40307510D01*
X58973550Y-40308555D01*
X58968397Y-40307264D01*
X58957686Y-40303642D01*
X58942376Y-40298070D01*
X58923424Y-40290927D01*
X58901788Y-40282593D01*
X58878424Y-40273448D01*
X58854291Y-40263870D01*
X58830346Y-40254240D01*
X58807546Y-40244937D01*
X58786849Y-40236341D01*
X58769213Y-40228832D01*
X58755595Y-40222788D01*
X58747940Y-40219111D01*
X58739921Y-40213550D01*
X58735220Y-40207672D01*
X58735045Y-40207170D01*
X58734048Y-40202504D01*
X58731917Y-40191625D01*
X58728791Y-40175261D01*
X58724804Y-40154139D01*
X58720096Y-40128988D01*
X58714802Y-40100535D01*
X58709059Y-40069507D01*
X58704353Y-40043972D01*
X58698278Y-40011353D01*
X58692422Y-39980679D01*
X58686936Y-39952688D01*
X58681971Y-39928120D01*
X58677679Y-39907712D01*
X58674210Y-39892205D01*
X58671718Y-39882336D01*
X58670560Y-39879048D01*
X58665643Y-39871111D01*
X58334358Y-39871111D01*
X58329397Y-39879048D01*
X58329397Y-39879048D01*
G37*
X58329397Y-39879048D02*
X58327748Y-39884084D01*
X58325010Y-39895326D01*
X58321334Y-39912036D01*
X58316870Y-39933475D01*
X58311772Y-39958904D01*
X58306190Y-39987584D01*
X58300275Y-40018776D01*
X58295602Y-40043972D01*
X58289613Y-40076504D01*
X58283964Y-40107029D01*
X58278794Y-40134820D01*
X58274239Y-40159149D01*
X58270435Y-40179289D01*
X58267520Y-40194510D01*
X58265629Y-40204087D01*
X58264954Y-40207170D01*
X58260690Y-40213127D01*
X58253194Y-40218525D01*
X58243880Y-40222950D01*
X58229710Y-40229177D01*
X58211637Y-40236828D01*
X58190616Y-40245527D01*
X58167599Y-40254894D01*
X58143539Y-40264552D01*
X58119390Y-40274122D01*
X58096106Y-40283228D01*
X58074639Y-40291490D01*
X58055942Y-40298531D01*
X58040970Y-40303973D01*
X58030674Y-40307438D01*
X58026135Y-40308555D01*
X58021780Y-40307326D01*
X58014055Y-40303495D01*
X58002618Y-40296841D01*
X57987127Y-40287146D01*
X57967239Y-40274191D01*
X57942611Y-40257758D01*
X57912902Y-40237627D01*
X57881578Y-40216197D01*
X57853910Y-40197290D01*
X57827800Y-40179616D01*
X57803865Y-40163582D01*
X57782724Y-40149594D01*
X57764995Y-40138058D01*
X57751296Y-40129380D01*
X57742246Y-40123967D01*
X57738651Y-40122233D01*
X57736046Y-40122460D01*
X57732292Y-40124235D01*
X57726959Y-40127951D01*
X57719620Y-40134003D01*
X57709844Y-40142787D01*
X57697203Y-40154695D01*
X57681269Y-40170124D01*
X57661612Y-40189466D01*
X57637803Y-40213116D01*
X57614183Y-40236700D01*
X57582883Y-40268147D01*
X57556629Y-40294843D01*
X57535339Y-40316877D01*
X57518927Y-40334341D01*
X57507308Y-40347323D01*
X57500398Y-40355916D01*
X57498112Y-40360207D01*
X57498112Y-40360208D01*
X57500058Y-40364568D01*
X57505630Y-40374108D01*
X57514430Y-40388214D01*
X57526057Y-40406271D01*
X57540112Y-40427665D01*
X57556197Y-40451783D01*
X57573911Y-40478008D01*
X57589787Y-40501260D01*
X57613515Y-40535984D01*
X57633328Y-40565299D01*
X57649431Y-40589525D01*
X57662026Y-40608980D01*
X57671319Y-40623985D01*
X57677513Y-40634857D01*
X57680812Y-40641918D01*
X57681509Y-40644845D01*
X57680143Y-40650448D01*
X57676285Y-40661556D01*
X57670330Y-40677235D01*
X57662675Y-40696553D01*
X57653715Y-40718577D01*
X57643847Y-40742374D01*
X57633465Y-40767011D01*
X57622965Y-40791554D01*
X57612744Y-40815072D01*
X57603197Y-40836632D01*
X57594720Y-40855300D01*
X57587708Y-40870143D01*
X57582559Y-40880229D01*
X57579856Y-40884454D01*
X57576362Y-40886393D01*
X57568978Y-40888834D01*
X57557264Y-40891871D01*
X57540783Y-40895598D01*
X57519095Y-40900111D01*
X57491762Y-40905504D01*
X57458345Y-40911872D01*
X57418650Y-40919264D01*
X57386226Y-40925328D01*
X57355748Y-40931175D01*
X57327959Y-40936652D01*
X57303602Y-40941605D01*
X57283422Y-40945881D01*
X57268162Y-40949327D01*
X57258565Y-40951790D01*
X57255577Y-40952871D01*
X57247639Y-40957829D01*
X57247639Y-41289115D01*
X57255577Y-41294210D01*
X57260642Y-41295912D01*
X57271896Y-41298706D01*
X57288585Y-41302436D01*
X57309953Y-41306944D01*
X57335246Y-41312073D01*
X57363708Y-41317666D01*
X57394586Y-41323567D01*
X57414616Y-41327311D01*
X57452836Y-41334446D01*
X57484640Y-41340506D01*
X57510565Y-41345610D01*
X57531150Y-41349876D01*
X57546933Y-41353423D01*
X57558450Y-41356368D01*
X57566240Y-41358831D01*
X57570842Y-41360929D01*
X57572222Y-41361984D01*
X57574978Y-41366717D01*
X57579897Y-41377128D01*
X57586614Y-41392308D01*
X57594761Y-41411348D01*
X57603972Y-41433340D01*
X57613880Y-41457375D01*
X57624120Y-41482544D01*
X57634324Y-41507938D01*
X57644126Y-41532649D01*
X57653159Y-41555769D01*
X57661058Y-41576388D01*
X57667455Y-41593598D01*
X57671984Y-41606490D01*
X57674279Y-41614155D01*
X57674489Y-41615545D01*
X57672541Y-41619863D01*
X57666974Y-41629348D01*
X57658195Y-41643374D01*
X57646611Y-41661316D01*
X57632630Y-41682546D01*
X57616658Y-41706439D01*
X57599105Y-41732370D01*
X57586295Y-41751104D01*
X57567886Y-41778081D01*
X57550779Y-41803461D01*
X57535382Y-41826616D01*
X57522103Y-41846920D01*
X57511348Y-41863744D01*
X57503526Y-41876461D01*
X57499044Y-41884445D01*
X57498112Y-41886864D01*
X57500562Y-41891085D01*
X57507509Y-41899568D01*
X57518342Y-41911704D01*
X57532453Y-41926885D01*
X57549232Y-41944502D01*
X57568070Y-41963946D01*
X57588359Y-41984608D01*
X57609488Y-42005881D01*
X57630850Y-42027156D01*
X57651835Y-42047823D01*
X57671833Y-42067274D01*
X57690236Y-42084901D01*
X57706435Y-42100095D01*
X57719820Y-42112247D01*
X57729783Y-42120749D01*
X57735714Y-42124992D01*
X57736790Y-42125361D01*
X57741204Y-42123417D01*
X57750779Y-42117860D01*
X57764877Y-42109100D01*
X57782864Y-42097549D01*
X57804105Y-42083618D01*
X57827963Y-42067717D01*
X57853804Y-42050259D01*
X57870400Y-42038930D01*
X57897116Y-42020725D01*
X57922212Y-42003825D01*
X57945056Y-41988639D01*
X57965017Y-41975578D01*
X57981464Y-41965053D01*
X57993766Y-41957474D01*
X58001292Y-41953252D01*
X58003279Y-41952500D01*
X58008459Y-41954113D01*
X58018686Y-41958594D01*
X58032832Y-41965399D01*
X58049765Y-41973987D01*
X58066328Y-41982725D01*
X58087188Y-41993631D01*
X58104933Y-42002319D01*
X58118728Y-42008411D01*
X58127739Y-42011526D01*
X58130387Y-42011829D01*
X58132066Y-42010969D01*
X58134222Y-42008557D01*
X58137033Y-42004193D01*
X58140673Y-41997481D01*
X58145320Y-41988020D01*
X58151148Y-41975414D01*
X58158334Y-41959263D01*
X58167053Y-41939169D01*
X58177483Y-41914735D01*
X58189798Y-41885561D01*
X58204175Y-41851249D01*
X58220790Y-41811402D01*
X58239818Y-41765620D01*
X58250104Y-41740833D01*
X58267289Y-41699315D01*
X58283673Y-41659558D01*
X58299056Y-41622058D01*
X58313236Y-41587315D01*
X58326014Y-41555826D01*
X58337187Y-41528087D01*
X58346555Y-41504599D01*
X58353918Y-41485857D01*
X58359073Y-41472360D01*
X58361821Y-41464606D01*
X58362234Y-41462977D01*
X58360450Y-41457031D01*
X58354150Y-41450441D01*
X58342745Y-41442411D01*
X58307502Y-41417996D01*
X58274806Y-41391681D01*
X58245846Y-41364542D01*
X58221809Y-41337655D01*
X58210837Y-41322957D01*
X58199558Y-41304418D01*
X58187770Y-41281398D01*
X58176550Y-41256292D01*
X58166977Y-41231492D01*
X58160727Y-41211666D01*
X58157476Y-41198583D01*
X58155206Y-41186236D01*
X58153754Y-41172868D01*
X58152954Y-41156723D01*
X58152641Y-41136044D01*
X58152615Y-41125236D01*
X58152767Y-41102077D01*
X58153332Y-41084214D01*
X58154476Y-41069893D01*
X58156364Y-41057358D01*
X58159161Y-41044853D01*
X58160751Y-41038805D01*
X58177053Y-40991423D01*
X58199374Y-40947557D01*
X58227937Y-40906811D01*
X58249337Y-40882461D01*
X58285042Y-40849914D01*
X58324209Y-40823165D01*
X58366175Y-40802293D01*
X58410275Y-40787373D01*
X58455846Y-40778482D01*
X58502223Y-40775696D01*
X58548742Y-40779093D01*
X58594738Y-40788748D01*
X58639549Y-40804739D01*
X58682508Y-40827141D01*
X58689722Y-40831684D01*
X58728430Y-40860886D01*
X58762773Y-40895427D01*
X58792266Y-40934755D01*
X58814143Y-40973541D01*
X58826128Y-40999675D01*
X58834960Y-41023044D01*
X58841062Y-41045610D01*
X58844857Y-41069332D01*
X58846766Y-41096170D01*
X58847217Y-41127000D01*
X58846986Y-41150741D01*
X58846366Y-41169090D01*
X58845203Y-41183703D01*
X58843347Y-41196240D01*
X58840645Y-41208359D01*
X58839302Y-41213430D01*
X58832443Y-41234421D01*
X58822858Y-41258341D01*
X58811667Y-41282752D01*
X58799989Y-41305211D01*
X58788942Y-41323279D01*
X58788931Y-41323296D01*
X58766303Y-41351792D01*
X58737476Y-41380790D01*
X58703206Y-41409608D01*
X58664248Y-41437563D01*
X58657869Y-41441755D01*
X58646046Y-41450173D01*
X58639677Y-41456796D01*
X58637764Y-41462680D01*
X58637766Y-41462943D01*
X58639121Y-41467370D01*
X58642993Y-41477809D01*
X58649182Y-41493764D01*
X58657488Y-41514736D01*
X58667708Y-41540227D01*
X58679642Y-41569740D01*
X58693090Y-41602776D01*
X58707849Y-41638839D01*
X58723720Y-41677430D01*
X58740501Y-41718052D01*
X58749944Y-41740833D01*
X58770297Y-41789832D01*
X58788150Y-41832695D01*
X58803675Y-41869816D01*
X58817047Y-41901587D01*
X58828440Y-41928402D01*
X58838025Y-41950655D01*
X58845978Y-41968739D01*
X58852472Y-41983047D01*
X58857679Y-41993972D01*
X58861774Y-42001908D01*
X58864931Y-42007248D01*
X58867322Y-42010385D01*
X58869121Y-42011713D01*
X58869498Y-42011808D01*
X58875207Y-42010534D01*
X58886072Y-42006186D01*
X58901129Y-41999205D01*
X58919416Y-41990029D01*
X58933309Y-41982704D01*
X58951780Y-41972983D01*
X58968485Y-41964562D01*
X58982288Y-41957983D01*
X58992058Y-41953788D01*
X58996443Y-41952500D01*
X59000919Y-41954438D01*
X59010449Y-41959940D01*
X59024296Y-41968533D01*
X59041725Y-41979748D01*
X59062001Y-41993114D01*
X59084389Y-42008159D01*
X59100031Y-42018826D01*
X59124798Y-42035807D01*
X59149105Y-42052464D01*
X59171972Y-42068125D01*
X59192420Y-42082121D01*
X59209468Y-42093779D01*
X59222138Y-42102430D01*
X59226286Y-42105256D01*
X59239545Y-42113795D01*
X59251354Y-42120533D01*
X59260087Y-42124585D01*
X59263268Y-42125361D01*
X59267571Y-42123067D01*
X59276190Y-42116133D01*
X59289213Y-42104475D01*
X59306728Y-42088012D01*
X59328822Y-42066660D01*
X59355583Y-42040337D01*
X59386295Y-42009766D01*
X59418083Y-41977819D01*
X59444743Y-41950681D01*
X59466292Y-41928334D01*
X59482749Y-41910758D01*
X59494131Y-41897935D01*
X59500455Y-41889847D01*
X59501889Y-41886865D01*
X59499944Y-41882504D01*
X59494378Y-41872978D01*
X59485600Y-41858913D01*
X59474018Y-41840937D01*
X59460037Y-41819677D01*
X59444067Y-41795760D01*
X59426514Y-41769814D01*
X59413726Y-41751105D01*
X59395321Y-41724134D01*
X59378218Y-41698768D01*
X59362822Y-41675634D01*
X59349542Y-41655358D01*
X59338785Y-41638566D01*
X59330958Y-41625883D01*
X59326470Y-41617938D01*
X59325532Y-41615545D01*
X59326844Y-41609806D01*
X59330560Y-41598541D01*
X59336309Y-41582658D01*
X59343723Y-41563063D01*
X59352431Y-41540663D01*
X59362065Y-41516366D01*
X59372256Y-41491080D01*
X59382633Y-41465710D01*
X59392828Y-41441164D01*
X59402472Y-41418350D01*
X59411195Y-41398175D01*
X59418627Y-41381545D01*
X59424400Y-41369368D01*
X59428145Y-41362552D01*
X59428912Y-41361596D01*
X59432205Y-41359571D01*
X59438147Y-41357302D01*
X59447300Y-41354664D01*
X59460228Y-41351535D01*
X59477491Y-41347790D01*
X59499652Y-41343305D01*
X59527272Y-41337956D01*
X59560915Y-41331621D01*
X59586610Y-41326853D01*
X59618478Y-41320886D01*
X59648397Y-41315129D01*
X59675611Y-41309739D01*
X59699359Y-41304873D01*
X59718885Y-41300689D01*
X59733428Y-41297343D01*
X59742232Y-41294994D01*
X59744424Y-41294141D01*
X59752362Y-41289115D01*
X59752362Y-41123822D01*
X59752339Y-41084910D01*
X59752259Y-41052460D01*
X59752103Y-41025880D01*
X59751851Y-41004575D01*
X59751485Y-40987954D01*
X59750984Y-40975424D01*
X59750331Y-40966390D01*
X59749507Y-40960261D01*
X59748491Y-40956443D01*
X59747265Y-40954343D01*
X59746902Y-40953999D01*
X59742395Y-40952436D01*
X59731668Y-40949767D01*
X59715443Y-40946141D01*
X59694441Y-40941709D01*
X59669387Y-40936619D01*
X59641000Y-40931023D01*
X59610005Y-40925069D01*
X59583964Y-40920177D01*
X59544092Y-40912703D01*
X59510711Y-40906310D01*
X59483358Y-40900898D01*
X59461570Y-40896365D01*
X59444881Y-40892611D01*
X59432830Y-40889535D01*
X59424951Y-40887037D01*
X59420781Y-40885014D01*
X59420281Y-40884589D01*
X59417107Y-40879520D01*
X59411719Y-40868862D01*
X59404512Y-40853547D01*
X59395883Y-40834509D01*
X59386227Y-40812680D01*
X59375942Y-40788994D01*
X59365422Y-40764383D01*
X59355065Y-40739781D01*
X59345266Y-40716120D01*
X59336421Y-40694335D01*
X59328928Y-40675357D01*
X59323180Y-40660119D01*
X59319576Y-40649556D01*
X59318492Y-40644845D01*
X59319810Y-40640361D01*
X59323874Y-40632297D01*
X59330889Y-40620335D01*
X59341058Y-40604154D01*
X59354584Y-40583436D01*
X59371674Y-40557861D01*
X59392529Y-40527110D01*
X59410214Y-40501260D01*
X59428990Y-40473736D01*
X59446473Y-40447803D01*
X59462263Y-40424077D01*
X59475960Y-40403170D01*
X59487165Y-40385698D01*
X59495480Y-40372276D01*
X59500504Y-40363516D01*
X59501889Y-40360208D01*
X59499440Y-40355984D01*
X59492497Y-40347496D01*
X59481669Y-40335352D01*
X59467565Y-40320162D01*
X59450795Y-40302536D01*
X59431966Y-40283080D01*
X59411688Y-40262406D01*
X59390569Y-40241122D01*
X59369218Y-40219836D01*
X59348244Y-40199157D01*
X59328256Y-40179696D01*
X59309862Y-40162060D01*
X59293672Y-40146858D01*
X59280294Y-40134701D01*
X59270337Y-40126195D01*
X59264409Y-40121951D01*
X59263334Y-40121583D01*
X59259003Y-40123530D01*
X59249484Y-40129106D01*
X59235386Y-40137918D01*
X59217314Y-40149568D01*
X59195877Y-40163663D01*
X59171681Y-40179806D01*
X59145334Y-40197602D01*
X59119754Y-40215069D01*
X59084898Y-40238900D01*
X59055442Y-40258832D01*
X59031049Y-40275081D01*
X59011385Y-40287859D01*
X58996116Y-40297380D01*
X58984908Y-40303860D01*
X58977424Y-40307510D01*
X58973550Y-40308555D01*
X58968397Y-40307264D01*
X58957686Y-40303642D01*
X58942376Y-40298070D01*
X58923424Y-40290927D01*
X58901788Y-40282593D01*
X58878424Y-40273448D01*
X58854291Y-40263870D01*
X58830346Y-40254240D01*
X58807546Y-40244937D01*
X58786849Y-40236341D01*
X58769213Y-40228832D01*
X58755595Y-40222788D01*
X58747940Y-40219111D01*
X58739921Y-40213550D01*
X58735220Y-40207672D01*
X58735045Y-40207170D01*
X58734048Y-40202504D01*
X58731917Y-40191625D01*
X58728791Y-40175261D01*
X58724804Y-40154139D01*
X58720096Y-40128988D01*
X58714802Y-40100535D01*
X58709059Y-40069507D01*
X58704353Y-40043972D01*
X58698278Y-40011353D01*
X58692422Y-39980679D01*
X58686936Y-39952688D01*
X58681971Y-39928120D01*
X58677679Y-39907712D01*
X58674210Y-39892205D01*
X58671718Y-39882336D01*
X58670560Y-39879048D01*
X58665643Y-39871111D01*
X58334358Y-39871111D01*
X58329397Y-39879048D01*
%LPC*%
D16*
X45000000Y-36250000D03*
X45000000Y-40250000D03*
X45000000Y-50250000D03*
X59000000Y-50250000D03*
X59000000Y-48250000D03*
X59000000Y-46250000D03*
X59000000Y-44250000D03*
X59000000Y-38250000D03*
X59000000Y-36250000D03*
D17*
X58350000Y-27250000D03*
X55810000Y-27250000D03*
X53270000Y-27250000D03*
D18*
X45650000Y-27250000D03*
D17*
X48190000Y-27250000D03*
X50730000Y-27250000D03*
M02*
