G04 #@! TF.FileFunction,Drawing*
%FSLAX46Y46*%
G04 Gerber Fmt 4.6, Leading zero omitted, Abs format (unit mm)*
G04 Created by KiCad (PCBNEW 4.0.5) date Sat Mar 11 22:07:51 2017*
%MOMM*%
%LPD*%
G01*
G04 APERTURE LIST*
%ADD10C,0.101600*%
%ADD11C,0.100000*%
G04 APERTURE END LIST*
D10*
D11*
X51047619Y-53726190D02*
X50761905Y-53726190D01*
X50904762Y-53726190D02*
X50904762Y-53226190D01*
X50857143Y-53297619D01*
X50809524Y-53345238D01*
X50761905Y-53369048D01*
X51333333Y-53440476D02*
X51285714Y-53416667D01*
X51261905Y-53392857D01*
X51238095Y-53345238D01*
X51238095Y-53321429D01*
X51261905Y-53273810D01*
X51285714Y-53250000D01*
X51333333Y-53226190D01*
X51428571Y-53226190D01*
X51476190Y-53250000D01*
X51500000Y-53273810D01*
X51523809Y-53321429D01*
X51523809Y-53345238D01*
X51500000Y-53392857D01*
X51476190Y-53416667D01*
X51428571Y-53440476D01*
X51333333Y-53440476D01*
X51285714Y-53464286D01*
X51261905Y-53488095D01*
X51238095Y-53535714D01*
X51238095Y-53630952D01*
X51261905Y-53678571D01*
X51285714Y-53702381D01*
X51333333Y-53726190D01*
X51428571Y-53726190D01*
X51476190Y-53702381D01*
X51500000Y-53678571D01*
X51523809Y-53630952D01*
X51523809Y-53535714D01*
X51500000Y-53488095D01*
X51476190Y-53464286D01*
X51428571Y-53440476D01*
X52119047Y-53726190D02*
X52119047Y-53392857D01*
X52119047Y-53440476D02*
X52142856Y-53416667D01*
X52190475Y-53392857D01*
X52261904Y-53392857D01*
X52309523Y-53416667D01*
X52333332Y-53464286D01*
X52333332Y-53726190D01*
X52333332Y-53464286D02*
X52357142Y-53416667D01*
X52404761Y-53392857D01*
X52476189Y-53392857D01*
X52523809Y-53416667D01*
X52547618Y-53464286D01*
X52547618Y-53726190D01*
X52785714Y-53726190D02*
X52785714Y-53392857D01*
X52785714Y-53440476D02*
X52809523Y-53416667D01*
X52857142Y-53392857D01*
X52928571Y-53392857D01*
X52976190Y-53416667D01*
X52999999Y-53464286D01*
X52999999Y-53726190D01*
X52999999Y-53464286D02*
X53023809Y-53416667D01*
X53071428Y-53392857D01*
X53142856Y-53392857D01*
X53190476Y-53416667D01*
X53214285Y-53464286D01*
X53214285Y-53726190D01*
X43000000Y-53000000D02*
X61000000Y-53000000D01*
X43000000Y-52000000D02*
X43000000Y-54270000D01*
X61000000Y-52000000D02*
X61000000Y-54270000D01*
X61000000Y-53000000D02*
X59873496Y-53586421D01*
X61000000Y-53000000D02*
X59873496Y-52413579D01*
X43000000Y-53000000D02*
X44126504Y-53586421D01*
X43000000Y-53000000D02*
X44126504Y-52413579D01*
X41726190Y-36761905D02*
X41750000Y-36785715D01*
X41773810Y-36833334D01*
X41773810Y-36952381D01*
X41750000Y-37000000D01*
X41726190Y-37023810D01*
X41678571Y-37047619D01*
X41630952Y-37047619D01*
X41559524Y-37023810D01*
X41273810Y-36738096D01*
X41273810Y-37047619D01*
X41559524Y-37333333D02*
X41583333Y-37285714D01*
X41607143Y-37261905D01*
X41654762Y-37238095D01*
X41678571Y-37238095D01*
X41726190Y-37261905D01*
X41750000Y-37285714D01*
X41773810Y-37333333D01*
X41773810Y-37428571D01*
X41750000Y-37476190D01*
X41726190Y-37500000D01*
X41678571Y-37523809D01*
X41654762Y-37523809D01*
X41607143Y-37500000D01*
X41583333Y-37476190D01*
X41559524Y-37428571D01*
X41559524Y-37333333D01*
X41535714Y-37285714D01*
X41511905Y-37261905D01*
X41464286Y-37238095D01*
X41369048Y-37238095D01*
X41321429Y-37261905D01*
X41297619Y-37285714D01*
X41273810Y-37333333D01*
X41273810Y-37428571D01*
X41297619Y-37476190D01*
X41321429Y-37500000D01*
X41369048Y-37523809D01*
X41464286Y-37523809D01*
X41511905Y-37500000D01*
X41535714Y-37476190D01*
X41559524Y-37428571D01*
X41273810Y-38119047D02*
X41607143Y-38119047D01*
X41559524Y-38119047D02*
X41583333Y-38142856D01*
X41607143Y-38190475D01*
X41607143Y-38261904D01*
X41583333Y-38309523D01*
X41535714Y-38333332D01*
X41273810Y-38333332D01*
X41535714Y-38333332D02*
X41583333Y-38357142D01*
X41607143Y-38404761D01*
X41607143Y-38476189D01*
X41583333Y-38523809D01*
X41535714Y-38547618D01*
X41273810Y-38547618D01*
X41273810Y-38785714D02*
X41607143Y-38785714D01*
X41559524Y-38785714D02*
X41583333Y-38809523D01*
X41607143Y-38857142D01*
X41607143Y-38928571D01*
X41583333Y-38976190D01*
X41535714Y-38999999D01*
X41273810Y-38999999D01*
X41535714Y-38999999D02*
X41583333Y-39023809D01*
X41607143Y-39071428D01*
X41607143Y-39142856D01*
X41583333Y-39190476D01*
X41535714Y-39214285D01*
X41273810Y-39214285D01*
X42000000Y-24000000D02*
X42000000Y-52000000D01*
X43000000Y-24000000D02*
X40730000Y-24000000D01*
X43000000Y-52000000D02*
X40730000Y-52000000D01*
X42000000Y-52000000D02*
X41413579Y-50873496D01*
X42000000Y-52000000D02*
X42586421Y-50873496D01*
X42000000Y-24000000D02*
X41413579Y-25126504D01*
X42000000Y-24000000D02*
X42586421Y-25126504D01*
X52000000Y-24000000D02*
X52000000Y-52000000D01*
M02*
